<svg width="223" height="169" viewBox="0 0 223 169" fill="none" xmlns="http://www.w3.org/2000/svg">
<g clip-path="url(#clip0_1_320)">
<path d="M203.204 121.94C202.477 120.615 201.321 119.879 199.956 119.343C198.85 118.907 197.344 118.759 196.222 119.187C194.378 119.887 193.011 121.312 193.011 123.396C193.011 124.236 193.241 124.962 193.627 125.582C193.712 126.565 194.05 127.197 194.651 127.972C195.045 128.48 195.682 128.85 196.268 129.113C197.499 129.67 198.891 130.215 200.25 129.695C201.91 129.063 202.925 127.991 203.536 126.341C204.073 124.89 203.949 123.294 203.204 121.94Z" fill="#F1AC56"/>
<path d="M167.546 92.5081C173.097 88.4321 182.212 91.4435 182.212 101.25C184.881 95.7473 196.544 97.0798 195.944 106.301C199.56 103.915 204.551 106.074 204.391 111.177C209.288 108.552 218.283 113.949 216.322 121.916C213.665 121.051 210.529 121.504 207.954 123.623C206.392 117.56 199.987 115.681 194.382 116.067C190.02 116.373 186.322 119.665 184.921 123.116C182.479 121.583 179.263 121.249 175.7 122.064C169.588 123.449 166.025 127.234 165.251 132.497C162.515 127.394 155.015 129.552 154.121 134.282C152.186 127.394 145.34 125.395 140.67 125.901C136.653 126.328 131.502 128.566 129.98 134.442C126.658 131.256 121.28 128.911 115.421 129.392C111.018 129.752 106.934 132.017 104.439 135.36C103.771 129.484 92.3749 127.274 88.1059 132.79C86.0495 130.392 82.5798 128.539 78.7899 128.22C75 127.912 69.929 128.886 67.0065 132.337C66.1792 126.861 58.6527 123.488 53.4215 125.487C51.7801 119.251 39.3696 114.735 33.5779 124.955C32.9107 118.732 28.0132 116.294 23.5694 116.294C16.8836 116.294 13.3339 121.397 13.1204 124.502C11.519 123.609 9.73085 123.396 8.02273 123.729C5.86221 115.854 15.1621 109.817 20.46 113.403C19.1255 105.408 28.9072 102.077 33.4178 107.406C31.5895 100.251 39.064 95.201 44.8676 97.333C46.8973 89.9364 59.3066 85.6059 65.6053 93.8552C66.4994 88.5253 71.7039 85.0343 78.1227 85.927C81.1119 86.3401 83.4606 87.8311 84.9686 89.6979C87.1838 83.6751 96.5532 82.4093 99.6345 87.7525C101.569 76.9994 119.945 72.068 127.325 83.4486C129.78 82.2094 132.85 81.8483 136.333 82.7557C141.897 84.2081 144.846 88.9118 145.233 92.5228C148.623 82.7557 164.49 84.5279 167.533 92.5081H167.546Z" fill="#D87639"/>
<path d="M33.5779 124.955C39.3695 114.735 51.7801 119.251 53.4215 125.487C58.6526 123.488 66.1791 126.861 67.0065 132.337C69.929 128.886 74.9999 127.912 78.7899 128.22C82.5798 128.539 86.0494 130.392 88.1058 132.79C92.3748 127.274 103.771 129.484 104.439 135.36C106.934 132.017 111.017 129.752 115.421 129.392C121.28 128.911 126.658 131.256 129.98 134.442C131.502 128.566 136.653 126.328 140.67 125.901C145.34 125.395 152.186 127.394 154.121 134.282C155.015 129.552 162.515 127.394 165.251 132.497C166.025 127.234 169.588 123.449 175.699 122.064C179.263 121.249 182.479 121.583 184.921 123.116C186.257 119.826 189.689 116.711 193.786 116.159C190.408 112.896 184.089 113.367 182.212 117.24C182.212 107.433 173.097 104.422 167.546 108.498H167.532C164.49 100.518 148.623 98.7454 145.233 108.512C144.846 104.901 141.897 100.198 136.332 98.7454C132.849 97.8379 129.78 98.1991 127.325 99.4383C119.945 88.0576 101.569 92.9891 99.6344 103.742C96.5531 98.3989 87.1837 99.6648 84.9685 105.688C83.4606 103.821 81.1118 102.33 78.1226 101.917C71.7038 101.024 66.4994 104.515 65.6053 109.845C59.3065 101.596 46.8973 105.926 44.8675 113.323C39.0639 111.191 31.5895 116.241 33.4177 123.396L33.2496 123.228C33.3937 123.772 33.5111 124.34 33.5779 124.955Z" fill="#B74F2F"/>
<path d="M192.6 126.505C192.6 137.726 158.993 146.825 117.536 146.825C76.0807 146.825 42.4719 137.726 42.4719 126.505C42.4719 115.284 76.0807 106.185 117.536 106.185C158.993 106.185 192.6 115.284 192.6 126.505Z" fill="#612D26"/>
<path d="M216.322 121.916C219.804 123.035 222.5 126.394 222.179 131.164C221.686 138.706 216.721 140.958 211.61 140.225C211.61 141.583 211.303 143.037 210.623 144.489C208.262 149.593 199.947 151.605 191.94 148.047C189.966 158.64 175.926 159.225 170.468 155.801C167.719 162.025 158.606 163.81 153.734 159.853C151.639 166.049 140.429 167.288 136.493 161.038C132.836 166.368 126.604 169.033 116.475 168.034C110.899 167.474 107.468 165.622 105.439 163.33C96.7386 171.605 82.0727 166.195 79.7774 159.04C77.4554 162.198 72.1176 164.196 65.6053 163.037C61.9622 162.384 58.2924 159.919 56.6376 156.335C51.3264 162.704 38.3553 159.465 37.4212 151.711C31.1892 153.99 19.726 153.377 16.0696 147.887C14.7885 145.968 14.0545 144.103 13.7476 142.344C5.68736 142.957 0.509609 139.372 0.216025 133.39C-0.0241808 128.539 3.79242 124.515 8.02271 123.729C9.73083 123.396 11.519 123.609 13.1204 124.502C13.3339 121.397 16.8836 116.294 23.5693 116.294C28.0131 116.294 32.9107 118.733 33.5779 124.955C39.3695 114.735 51.7801 119.251 53.4215 125.487C58.6527 123.488 66.1791 126.861 67.0065 132.337C69.929 128.886 75 127.912 78.7899 128.22C82.5798 128.539 86.0495 130.392 88.1059 132.79C92.3749 127.274 103.771 129.484 104.439 135.36C106.934 132.017 111.017 129.752 115.421 129.392C121.28 128.911 126.658 131.256 129.98 134.442C131.502 128.566 136.653 126.328 140.67 125.901C145.34 125.395 152.186 127.394 154.121 134.282C155.015 129.552 162.515 127.394 165.251 132.497C166.025 127.234 169.588 123.449 175.7 122.064C179.263 121.25 182.479 121.583 184.921 123.116C186.322 119.665 190.02 116.373 194.382 116.068C199.987 115.681 206.392 117.56 207.954 123.623C210.529 121.504 213.665 121.051 216.322 121.916Z" fill="#E88D3A"/>
<path d="M216.94 122.174C216.369 129.14 211.705 131.232 206.895 130.544C206.895 131.839 206.603 133.223 205.956 134.606C203.705 139.47 195.781 141.389 188.15 137.997C186.267 148.094 172.888 148.652 167.686 145.389C165.065 151.319 156.382 153.021 151.738 149.247C149.74 155.153 139.059 156.335 135.306 150.379C131.819 155.458 125.881 157.999 116.229 157.046C110.912 156.512 107.642 154.747 105.71 152.563C97.4177 160.448 83.4391 155.293 81.2532 148.475C79.0407 151.483 73.9523 153.389 67.747 152.283C64.2734 151.662 60.7757 149.313 59.1997 145.896C54.1367 151.966 41.7768 148.881 40.8853 141.49C34.9456 143.66 24.0203 143.077 20.536 137.844C19.3149 136.016 18.6143 134.238 18.3234 132.564C10.9117 133.126 6.07158 129.961 5.48708 124.617C2.39109 126.221 0.0264047 129.541 0.2159 133.39C0.509485 139.372 5.68724 142.957 13.7475 142.344C14.0544 144.103 14.7883 145.968 16.0694 147.887C19.7259 153.377 31.189 153.99 37.421 151.711C38.3552 159.465 51.3263 162.704 56.6375 156.335C58.2922 159.919 61.9621 162.384 65.6052 163.037C72.1174 164.196 77.4553 162.198 79.7773 159.04C82.0726 166.195 96.7385 171.605 105.439 163.33C107.468 165.622 110.899 167.474 116.475 168.034C126.604 169.033 132.836 166.368 136.492 161.038C140.429 167.288 151.639 166.049 153.734 159.853C158.606 163.81 167.719 162.025 170.468 155.801C175.926 159.225 189.966 158.64 191.94 148.047C199.947 151.605 208.262 149.593 210.623 144.489C211.303 143.037 211.61 141.583 211.61 140.225C216.721 140.958 221.685 138.706 222.179 131.164C222.481 126.687 220.112 123.477 216.94 122.174Z" fill="#D87639"/>
<path d="M30.0345 126.464L30.0585 126.481L30.1145 126.521L30.0345 126.464Z" fill="#F1AC56"/>
<path d="M30.5591 126.867C30.3923 126.74 30.2242 126.61 30.0587 126.481C29.5196 126 28.8777 125.682 28.2024 125.551C28.452 124.919 28.5828 124.178 28.5014 123.507C28.2999 121.823 27.686 120.717 26.3008 119.707C25.2185 118.918 23.7279 119.004 22.4909 119.199C21.4073 119.371 20.3717 120.16 19.5977 120.881C17.7735 122.578 16.6992 125.482 18.0551 127.775C19.144 129.612 21.526 130.323 23.5678 129.887C23.5131 130.477 23.5785 131.074 23.8174 131.65C24.1643 132.485 24.2911 132.708 24.8703 133.425C25.4147 134.099 26.4196 134.369 27.239 134.404C27.5045 134.415 28.1611 134.594 27.3244 134.375C28.8497 134.776 30.3923 134.123 31.2157 132.794C31.7775 131.887 31.7602 130.881 31.7962 129.864C31.8229 129.121 31.6267 128.308 31.2237 127.679C31.0569 127.358 30.834 127.087 30.5591 126.867Z" fill="#F1AC56"/>
<path d="M55.434 134.664L55.1724 134.47C54.8201 134.047 54.3891 133.697 53.8913 133.459C53.4656 132.146 52.5929 131.007 51.3092 130.205C50.4925 129.695 49.3781 129.424 48.3613 129.519C48.3853 129.267 48.4053 129.014 48.388 128.77C48.2866 127.335 47.7808 126.18 46.8266 125.104C45.2519 123.331 42.1867 123.431 40.5946 125.074C39.423 126.281 39.2868 127.907 39.8873 129.231C39.6111 130.398 40.0368 131.68 40.8402 132.564C41.5301 133.326 42.7765 133.677 43.7907 133.611C43.2729 134.819 43.1688 136.233 43.5184 137.45C44.211 139.846 46.4009 140.825 48.6162 140.701C49.4249 140.836 50.2616 140.845 51.137 140.824L51.2651 140.878H51.2731C52.6676 141.451 54.2223 141.321 55.434 140.111C56.8005 138.746 57.0767 135.98 55.434 134.664Z" fill="#F1AC56"/>
<path d="M75.0106 133.29C73.7028 133.589 72.3844 134.209 71.3181 135.087C70.9938 134.879 70.6415 134.705 70.2452 134.544C71.8225 135.186 70.871 134.767 70.4854 134.574C69.4859 134.075 68.8026 133.927 67.7003 133.811C66.8543 133.723 65.7961 134.035 65.0821 134.476C64.2321 135.002 63.2765 135.968 63.1271 136.987C62.9643 138.093 62.963 138.267 63.1284 139.37C63.3219 140.673 64.6724 141.779 65.8681 142.107C66.2457 142.211 66.6475 142.247 67.0505 142.229L67.1986 142.284C68.066 142.51 68.8667 142.406 69.658 142.156C69.9289 142.692 70.2625 143.194 70.6775 143.631C71.1806 144.82 72.1642 145.831 73.6308 146.316C76.2584 147.185 79.5985 146.716 81.7977 145.078C85.1152 142.612 86.3269 138.324 83.3818 135.027C81.4228 132.835 77.6675 132.681 75.0106 133.29Z" fill="#F1AC56"/>
<path d="M58.9342 128.802C57.4009 128.802 56.1198 130.08 56.1198 131.614C56.1198 133.146 57.4009 134.424 58.9342 134.424C60.4688 134.424 61.75 133.146 61.75 131.614C61.75 130.08 60.4688 128.802 58.9342 128.802Z" fill="#F1AC56"/>
<path d="M131.885 142.832C130.493 142.832 129.33 143.991 129.33 145.382C129.33 146.773 130.493 147.932 131.885 147.932C133.277 147.932 134.439 146.773 134.439 145.382C134.439 143.991 133.277 142.832 131.885 142.832Z" fill="#F1AC56"/>
<path d="M33.771 134.863L33.6723 134.937C32.6127 135.233 31.9295 136.645 32.9023 137.618C33.8791 138.593 35.3017 137.904 35.5926 136.842L35.6606 136.75C36.4693 135.658 34.8639 134.053 33.771 134.863Z" fill="#F1AC56"/>
<path d="M99.7542 138.76C98.7253 138.304 97.9433 138.049 96.7863 138.023C95.7427 138 94.6751 138.426 93.7744 138.893C91.3176 140.163 90.0752 143.546 91.6126 145.952C92.0823 146.686 92.7175 147.265 93.4608 147.637C94.0519 148.269 94.8139 148.74 95.656 148.92C96.8824 149.18 97.9486 148.969 99.0669 148.417L99.255 148.296C100.114 147.626 100.219 147.551 99.5674 148.068C99.953 147.83 100.309 147.53 100.646 147.225C101.843 146.132 102.454 144.897 102.609 143.274C102.782 141.458 101.36 139.47 99.7542 138.76Z" fill="#F1AC56"/>
<path d="M126.285 138.312C124.584 136.555 122.198 135.736 119.818 135.487C116.816 135.176 114.352 136.029 112.571 138.551C112.357 138.853 112.18 139.162 112.02 139.475C110.702 138.878 109.13 138.79 107.7 139.038C107.386 139.092 107.09 139.192 106.808 139.322C104.851 140.009 103.524 142.165 103.762 144.22C104.022 146.474 105.397 148.37 107.711 148.883C109.698 149.323 111.603 148.815 113.157 147.532L113.189 147.499C114.193 148.605 115.549 149.438 117.157 149.794C117.566 149.886 117.97 149.931 118.376 149.955C119.262 150.119 120.169 150.075 121.01 149.82C121.143 149.831 121.273 149.844 121.409 149.851C127.088 150.091 130.086 142.234 126.285 138.312Z" fill="#F1AC56"/>
<path d="M147.865 134.487C147.837 134.277 147.798 134.069 147.732 133.864C147.374 132.782 146.308 131.695 145.053 131.83C143.689 131.975 142.506 132.473 141.77 133.716C141.371 134.393 141.279 135.122 141.378 135.814C139.15 135.946 137.304 137.642 137.233 139.923C137.175 140.114 137.124 140.303 137.088 140.491C136.754 142.177 137.543 144.259 139.44 144.628C140.664 144.868 141.748 144.969 142.975 144.735C145.236 144.305 146.6 142.24 146.687 140.052C146.711 139.467 146.568 138.908 146.325 138.393C147.346 137.787 148.022 136.638 147.957 135.473L147.968 135.393C147.957 135.013 147.836 134.172 147.865 134.487Z" fill="#F1AC56"/>
<path d="M189.378 128.409C188.506 128.409 187.7 128.709 187.038 129.196L186.938 128.942C186.809 128.667 186.502 127.811 186.892 128.985C186.702 128.414 186.422 127.769 186.078 127.255C184.468 124.853 181.961 123.857 179.128 124.285C180.776 124.037 178.891 124.248 178.34 124.433C177.502 124.711 176.746 125.104 176.114 125.735C174.907 126.939 174.366 128.817 174.815 130.47L174.756 130.818C174.113 130.783 173.42 130.853 172.94 131.027C171.783 131.448 171.054 132.061 170.325 132.933C169.91 132.799 169.481 132.708 169.027 132.708C166.919 132.708 165.129 134.27 164.755 136.28C164.338 135.897 163.869 135.568 163.426 135.33C162.022 134.576 160.47 134.341 158.92 134.735C157.229 135.165 155.817 136.891 155.885 138.668L155.83 138.734C155.243 139.562 155.282 140.722 155.487 141.654C155.714 142.692 156.602 143.606 157.478 144.157C158.495 144.798 159.834 145.045 161.019 144.925C162.388 144.789 164.032 144.443 164.993 143.35C165.584 142.677 166.063 142.005 166.277 141.117C166.331 140.886 166.349 140.67 166.369 140.453C167.111 141.035 168.027 141.401 169.027 141.401C169.708 141.401 170.345 141.223 170.925 140.936C171.155 141.102 171.4 141.245 171.659 141.365C172.072 142.051 172.861 142.768 173.679 142.9C174.853 143.093 175.817 143.303 177.019 143.063C178.79 142.71 179.907 140.998 180.487 139.431C180.709 138.834 180.781 138.239 180.745 137.664C181.58 137.662 182.406 137.558 183.103 137.402C184.389 137.114 185.637 136.223 186.485 135.094C187.217 135.873 188.245 136.372 189.378 136.372C191.552 136.372 193.365 134.561 193.365 132.39C193.365 130.22 191.552 128.409 189.378 128.409Z" fill="#F1AC56"/>
<mask id="mask0_1_320" style="mask-type:luminance" maskUnits="userSpaceOnUse" x="60" y="97" width="103" height="50">
<path d="M160.845 137.636C156.508 124.512 149.089 114.024 139.721 107.096C131.474 101.007 121.719 97.6623 111.203 97.6623C99.7397 97.6623 89.1707 101.645 80.4846 108.828C72.1441 115.731 65.5504 125.564 61.5604 137.636C61.3335 138.343 61.1066 139.075 60.8798 139.835C74.6515 144.126 94.9222 146.83 117.542 146.83C134.329 146.83 149.836 145.338 162.34 142.82C161.86 140.941 161.366 139.209 160.845 137.636Z" fill="white"/>
</mask>
<g mask="url(#mask0_1_320)">
<path d="M111.204 243.716C123.141 243.716 161.025 241.642 169.848 235.942C168.292 197.078 164.701 155.669 158.95 138.263C151.22 114.868 133.239 99.6582 111.204 99.6582C89.1719 99.6582 71.1885 114.868 63.4606 138.263C57.7076 155.669 54.1193 197.078 52.5606 235.942C61.3828 241.642 99.2699 243.716 111.204 243.716Z" fill="#CD5C29"/>
<path d="M59.9002 237.309C61.3695 200.657 64.755 161.605 70.1797 145.187C77.4699 123.126 94.4297 108.779 115.208 108.779C135.988 108.779 152.948 123.126 160.238 145.187C161.231 148.197 160.452 142.808 158.95 138.263C151.22 114.868 133.239 99.6582 111.204 99.6582C89.1719 99.6582 71.1885 114.868 63.4606 138.263C57.7076 155.669 54.1193 197.078 52.5606 235.942C55.6566 237.942 61.9406 238.627 59.9002 237.309Z" fill="#E6894A"/>
<path d="M54.6117 234.807C64.292 239.653 98.568 241.717 111.204 241.717C123.84 241.717 158.119 239.653 167.799 234.807C165.936 189.46 161.928 153.655 157.049 138.889C149.461 115.924 131.894 101.657 111.204 101.657C90.5144 101.657 72.9474 115.924 65.3609 138.889C60.4807 153.655 56.472 189.46 54.6117 234.807ZM111.204 245.715C103.87 245.715 61.6911 244.222 51.4731 237.62C50.8792 237.236 50.5322 236.567 50.5616 235.862C51.4504 213.642 54.3035 159.592 61.5577 137.636C69.7046 112.978 88.7289 97.6595 111.204 97.6595C133.682 97.6595 152.704 112.978 160.851 137.636C168.105 159.592 170.958 213.642 171.849 235.862C171.876 236.567 171.529 237.236 170.935 237.62C160.721 244.222 118.541 245.715 111.204 245.715Z" fill="#100F0D"/>
<path d="M68.0846 142.347C75.6978 143.471 89.6857 146.207 98.6281 149.79C101.753 142.716 102.377 134.593 99.8557 126.993C99.9265 131.262 99.4127 134.506 98.5733 136.924C87.1008 131.47 76.2235 128.586 72.3762 127.772C70.5026 130.897 68.3181 137.482 68.0846 142.347Z" fill="#100F0D"/>
<path d="M154.325 142.347C146.712 143.471 132.725 146.207 123.78 149.79C120.658 142.716 120.032 134.593 122.553 126.993C122.482 131.262 122.996 134.506 123.835 136.924C135.309 131.47 146.187 128.586 150.035 127.772C151.908 130.897 154.093 137.482 154.325 142.347Z" fill="#100F0D"/>
</g>
<path d="M55.0803 138.077L54.9348 138.236C50.2882 133.96 46.581 129.298 44.1442 125.005C52.2325 124.221 63.1352 127.158 65.9309 128.44L66.773 129.183C63.9639 132.396 60.1353 135.432 55.0803 138.077Z" fill="#FDEAB3"/>
<path d="M66.773 129.183L65.9309 128.44C56.4054 122.917 51.6013 117.792 47.1815 111.389C53.8059 110.91 63.5702 112.17 71.8786 116.903L73.0183 117.112C72.1495 121.15 70.2106 125.298 66.773 129.183Z" fill="#FDEAB3"/>
<path d="M72.2333 103.977C73.5491 107.816 74.0108 112.386 73.018 117.112L71.8783 116.903C63.1215 110.659 57.6355 104.879 52.6926 100.536C59.1621 99.617 65.5796 100.186 72.2333 103.977Z" fill="#FDEAB3"/>
<path d="M90.4891 141.836C87.1075 148.584 77.2217 153.335 64.6803 145.635C61.12 143.459 57.8465 140.914 54.9347 138.236L55.0801 138.077C60.1351 135.432 63.9637 132.396 66.7728 129.183C70.2104 125.298 72.1494 121.15 73.0181 117.112C74.011 112.386 73.5493 107.816 72.2335 103.977C75.5403 105.859 78.8899 108.531 82.3355 112.211C90.325 120.772 94.3177 134.208 90.4891 141.836Z" fill="#CD5C29"/>
<path d="M81.0997 147.066C77.9023 147.978 72.6405 148.174 65.7359 143.936C62.9628 142.233 60.2858 140.251 57.7864 138.095C72.4002 129.548 76.0567 117.507 74.5607 107.909C76.6092 109.413 78.7123 111.273 80.8688 113.583C83.3109 116.197 85.4394 119.402 87.0274 122.842C90.2048 129.731 90.8427 136.669 88.6982 140.95C87.2249 143.883 84.4572 146.114 81.0997 147.066ZM64.2453 129.913C61.9673 132.145 59.1342 134.263 55.6779 136.201C52.5886 133.283 49.8503 130.109 47.6711 126.878C54.158 126.99 61.3601 128.866 64.2453 129.913ZM51.0566 113.315C56.923 113.481 64.3827 114.93 70.8883 118.639L71.2539 118.762C70.4319 121.468 69.064 124.18 67.0463 126.794L66.9422 126.71C59.1783 122.208 54.7518 118.081 51.0566 113.315ZM58.2054 102.855C57.9479 102.614 57.6943 102.378 57.4421 102.146C61.5683 102.081 66.275 102.872 71.4074 105.837C72.1627 108.569 72.4416 111.539 72.108 114.589C66.2964 110.357 62.0007 106.379 58.2054 102.855ZM90.6652 121.171C88.901 117.347 86.527 113.78 83.798 110.858C74.2378 100.616 64.5602 96.8241 52.4191 98.5603C51.6451 98.6709 51.0072 99.2212 50.783 99.9687C50.5615 100.716 50.7964 101.528 51.3823 102.041C52.69 103.189 54.0406 104.443 55.4791 105.78C57.1058 107.291 58.8153 108.88 60.6995 110.542C55.6259 109.395 50.7777 109.13 47.0345 109.4C46.3206 109.452 45.6867 109.882 45.3744 110.53C45.0675 111.175 45.1169 111.936 45.5332 112.529C48.2756 116.497 51.2368 120.101 55.4738 123.648C51.6999 123.023 47.5763 122.667 43.9613 123.019C43.2873 123.083 42.6922 123.486 42.3772 124.085C42.093 124.637 42.0769 125.287 42.3358 125.844L42.4106 125.993C46.9358 133.976 54.8692 141.958 63.6407 147.341C71.7824 152.339 78.2252 152.042 82.2006 150.912C86.6284 149.651 90.3036 146.673 92.2759 142.738C94.9982 137.319 94.3924 129.255 90.6652 121.171Z" fill="#100F0D"/>
<path d="M167.328 138.077L167.474 138.236C172.122 133.96 175.828 129.298 178.264 125.005C170.179 124.221 159.275 127.158 156.48 128.44L155.636 129.183C158.445 132.396 162.275 135.432 167.328 138.077Z" fill="#FDEAB3"/>
<path d="M155.636 129.183L156.481 128.44C166.005 122.917 170.808 117.792 175.231 111.389C168.606 110.91 158.839 112.17 150.533 116.903L149.391 117.112C150.262 121.15 152.198 125.298 155.636 129.183Z" fill="#FDEAB3"/>
<path d="M150.175 103.977C148.859 107.816 148.397 112.386 149.39 117.112L150.532 116.903C159.286 110.659 164.774 104.879 169.715 100.536C163.249 99.617 156.831 100.186 150.175 103.977Z" fill="#FDEAB3"/>
<path d="M131.921 141.836C135.304 148.584 145.187 153.335 157.731 145.635C161.291 143.459 164.565 140.914 167.474 138.236L167.329 138.077C162.275 135.432 158.445 132.396 155.636 129.183C152.198 125.298 150.262 121.15 149.391 117.112C148.398 112.386 148.859 107.816 150.175 103.977C146.868 105.859 143.521 108.531 140.076 112.211C132.088 120.772 128.094 134.208 131.921 141.836Z" fill="#CD5C29"/>
<path d="M133.71 140.95C131.566 136.669 132.203 129.731 135.381 122.842C136.969 119.402 139.097 116.197 141.541 113.583C143.696 111.273 145.802 109.413 147.848 107.909C146.352 117.507 150.008 129.548 164.625 138.095C162.125 140.251 159.445 142.233 156.672 143.936C149.771 148.174 144.509 147.978 141.309 147.066C137.954 146.114 135.186 143.883 133.71 140.95ZM174.74 126.878C172.559 130.109 169.82 133.283 166.73 136.201C163.275 134.263 160.442 132.145 158.166 129.913C161.049 128.866 168.253 126.99 174.74 126.878ZM155.466 126.71L155.365 126.794C153.344 124.18 151.979 121.468 151.156 118.762C151.277 118.722 151.403 118.706 151.52 118.639C158.026 114.93 165.485 113.481 171.354 113.315C167.659 118.081 163.233 122.208 155.466 126.71ZM150.303 114.589C149.967 111.539 150.248 108.569 151.004 105.837C156.136 102.872 160.843 102.081 164.966 102.146C164.717 102.378 164.46 102.614 164.206 102.855C160.408 106.379 156.115 110.357 150.303 114.589ZM130.132 142.738C132.107 146.673 135.78 149.651 140.21 150.912C144.183 152.042 150.629 152.339 158.772 147.341C167.539 141.958 175.475 133.976 179.998 125.993L180.074 125.844C180.331 125.287 180.318 124.637 180.031 124.085C179.719 123.486 179.125 123.083 178.45 123.019C174.832 122.667 170.708 123.023 166.937 123.648C171.175 120.101 174.135 116.497 176.878 112.529C177.293 111.936 177.345 111.175 177.034 110.53C176.724 109.882 176.09 109.452 175.374 109.4C171.631 109.13 166.784 109.395 161.711 110.542C163.593 108.88 165.305 107.291 166.932 105.78C168.37 104.443 169.718 103.189 171.029 102.041C171.616 101.528 171.847 100.716 171.625 99.9687C171.401 99.2212 170.763 98.6709 169.992 98.5603C157.851 96.8241 148.173 100.616 138.61 110.858C135.884 113.78 133.507 117.347 131.746 121.171C128.016 129.255 127.414 137.319 130.132 142.738Z" fill="#100F0D"/>
<path d="M216.322 121.916C219.804 123.035 222.5 126.394 222.179 131.164C221.686 138.706 216.721 140.958 211.61 140.225C211.61 141.583 211.303 143.037 210.623 144.489C208.262 149.593 199.947 151.605 191.94 148.047C189.966 158.64 175.926 159.225 170.468 155.801C167.719 162.025 158.606 163.81 153.734 159.853C151.639 166.049 140.429 167.288 136.493 161.038C132.836 166.368 126.604 169.033 116.475 168.034C110.899 167.474 107.468 165.622 105.439 163.33C96.7386 171.605 82.0727 166.195 79.7774 159.04C77.4554 162.198 72.1176 164.196 65.6053 163.037C61.9622 162.384 58.2924 159.919 56.6376 156.335C51.3264 162.704 38.3553 159.465 37.4212 151.711C31.1892 153.99 19.726 153.377 16.0696 147.887C14.7885 145.968 14.0545 144.103 13.7476 142.344C5.68736 142.957 0.509609 139.372 0.216025 133.39C-0.0241808 128.539 3.79242 124.515 8.02271 123.729C9.73083 123.396 11.519 123.609 13.1204 124.502C13.3339 121.397 16.8836 116.294 23.5693 116.294C28.0131 116.294 32.9107 118.733 33.5779 124.955C39.3695 114.735 51.7801 119.251 53.4215 125.487C58.6527 123.488 66.1791 126.861 67.0065 132.337C69.929 128.886 75 127.912 78.7899 128.22C82.5798 128.539 86.0495 130.392 88.1059 132.79C92.3749 127.274 103.771 129.484 104.439 135.36C106.934 132.017 111.017 129.752 115.421 129.392C121.28 128.911 126.658 131.256 129.98 134.442C131.502 128.566 136.653 126.328 140.67 125.901C145.34 125.395 152.186 127.394 154.121 134.282C155.015 129.552 162.515 127.394 165.251 132.497C166.025 127.234 169.588 123.449 175.7 122.064C179.263 121.25 182.479 121.583 184.921 123.116C186.322 119.665 190.02 116.373 194.382 116.068C199.987 115.681 206.392 117.56 207.954 123.623C210.529 121.504 213.665 121.051 216.322 121.916Z" fill="#E88D3A"/>
<path d="M216.94 122.174C216.369 129.14 211.705 131.232 206.895 130.544C206.895 131.839 206.603 133.223 205.956 134.606C203.705 139.47 195.781 141.389 188.15 137.997C186.267 148.094 172.888 148.652 167.686 145.389C165.065 151.319 156.382 153.021 151.738 149.247C149.74 155.153 139.059 156.335 135.306 150.379C131.819 155.458 125.881 157.999 116.229 157.046C110.912 156.512 107.642 154.747 105.71 152.563C97.4177 160.448 83.4391 155.293 81.2532 148.475C79.0407 151.483 73.9523 153.389 67.747 152.283C64.2734 151.662 60.7757 149.313 59.1997 145.896C54.1367 151.966 41.7768 148.881 40.8853 141.49C34.9456 143.66 24.0203 143.077 20.536 137.844C19.3149 136.016 18.6143 134.238 18.3234 132.564C10.9117 133.126 6.07158 129.961 5.48708 124.617C2.39109 126.221 0.0264047 129.541 0.2159 133.39C0.509485 139.372 5.68724 142.957 13.7475 142.344C14.0544 144.103 14.7883 145.968 16.0694 147.887C19.7259 153.377 31.189 153.99 37.421 151.711C38.3552 159.465 51.3263 162.704 56.6375 156.335C58.2922 159.919 61.9621 162.384 65.6052 163.037C72.1174 164.196 77.4553 162.198 79.7773 159.04C82.0726 166.195 96.7385 171.605 105.439 163.33C107.468 165.622 110.899 167.474 116.475 168.034C126.604 169.033 132.836 166.368 136.492 161.038C140.429 167.288 151.639 166.049 153.734 159.853C158.606 163.81 167.719 162.025 170.468 155.801C175.926 159.225 189.966 158.64 191.94 148.047C199.947 151.605 208.262 149.593 210.623 144.489C211.303 143.037 211.61 141.583 211.61 140.225C216.721 140.958 221.685 138.706 222.179 131.164C222.481 126.687 220.112 123.477 216.94 122.174Z" fill="#D87639"/>
<path d="M30.0345 126.464L30.0585 126.481L30.1145 126.521L30.0345 126.464Z" fill="#F1AC56"/>
<path d="M30.5591 126.867C30.3923 126.74 30.2242 126.61 30.0587 126.481C29.5196 126 28.8777 125.682 28.2024 125.551C28.452 124.919 28.5828 124.178 28.5014 123.507C28.2999 121.823 27.686 120.717 26.3008 119.707C25.2185 118.918 23.7279 119.004 22.4909 119.199C21.4073 119.371 20.3717 120.16 19.5977 120.881C17.7735 122.578 16.6992 125.482 18.0551 127.775C19.144 129.612 21.526 130.323 23.5678 129.887C23.5131 130.477 23.5785 131.074 23.8174 131.65C24.1643 132.485 24.2911 132.708 24.8703 133.425C25.4147 134.099 26.4196 134.369 27.239 134.404C27.5045 134.415 28.1611 134.594 27.3244 134.375C28.8497 134.776 30.3923 134.123 31.2157 132.794C31.7775 131.887 31.7602 130.881 31.7962 129.864C31.8229 129.121 31.6267 128.308 31.2237 127.679C31.0569 127.358 30.834 127.087 30.5591 126.867Z" fill="#F1AC56"/>
<path d="M55.434 134.664L55.1724 134.47C54.8201 134.047 54.3891 133.697 53.8913 133.459C53.4656 132.146 52.5929 131.007 51.3092 130.205C50.4925 129.695 49.3781 129.424 48.3613 129.519C48.3853 129.267 48.4053 129.014 48.388 128.77C48.2866 127.335 47.7808 126.18 46.8266 125.104C45.2519 123.331 42.1867 123.431 40.5946 125.074C39.423 126.281 39.2868 127.907 39.8873 129.231C39.6111 130.398 40.0368 131.68 40.8402 132.564C41.5301 133.326 42.7765 133.677 43.7907 133.611C43.2729 134.819 43.1688 136.233 43.5184 137.45C44.211 139.846 46.4009 140.825 48.6162 140.701C49.4249 140.836 50.2616 140.845 51.137 140.824L51.2651 140.878H51.2731C52.6676 141.451 54.2223 141.321 55.434 140.111C56.8005 138.746 57.0767 135.98 55.434 134.664Z" fill="#F1AC56"/>
<path d="M75.0106 133.29C73.7028 133.589 72.3844 134.209 71.3181 135.087C70.9938 134.879 70.6415 134.705 70.2452 134.544C71.8225 135.186 70.871 134.767 70.4854 134.574C69.4859 134.075 68.8026 133.927 67.7003 133.811C66.8543 133.723 65.7961 134.035 65.0821 134.476C64.2321 135.002 63.2765 135.968 63.1271 136.987C62.9643 138.093 62.963 138.267 63.1284 139.37C63.3219 140.673 64.6724 141.779 65.8681 142.107C66.2457 142.211 66.6475 142.247 67.0505 142.229L67.1986 142.284C68.066 142.51 68.8667 142.406 69.658 142.156C69.9289 142.692 70.2625 143.194 70.6775 143.631C71.1806 144.82 72.1642 145.831 73.6308 146.316C76.2584 147.185 79.5985 146.716 81.7977 145.078C85.1152 142.612 86.3269 138.324 83.3818 135.027C81.4228 132.835 77.6675 132.681 75.0106 133.29Z" fill="#F1AC56"/>
<path d="M58.9342 128.802C57.4009 128.802 56.1198 130.08 56.1198 131.614C56.1198 133.146 57.4009 134.424 58.9342 134.424C60.4688 134.424 61.75 133.146 61.75 131.614C61.75 130.08 60.4688 128.802 58.9342 128.802Z" fill="#F1AC56"/>
<path d="M131.885 142.832C130.493 142.832 129.33 143.991 129.33 145.382C129.33 146.773 130.493 147.932 131.885 147.932C133.277 147.932 134.439 146.773 134.439 145.382C134.439 143.991 133.277 142.832 131.885 142.832Z" fill="#F1AC56"/>
<path d="M33.771 134.863L33.6723 134.937C32.6127 135.233 31.9295 136.645 32.9023 137.618C33.8791 138.593 35.3017 137.904 35.5926 136.842L35.6606 136.75C36.4693 135.658 34.8639 134.053 33.771 134.863Z" fill="#F1AC56"/>
<path d="M99.7542 138.76C98.7253 138.304 97.9433 138.049 96.7863 138.023C95.7427 138 94.6751 138.426 93.7744 138.893C91.3176 140.163 90.0752 143.546 91.6126 145.952C92.0823 146.686 92.7175 147.265 93.4608 147.637C94.0519 148.269 94.8139 148.74 95.656 148.92C96.8824 149.18 97.9486 148.969 99.0669 148.417L99.255 148.296C100.114 147.626 100.219 147.551 99.5674 148.068C99.953 147.83 100.309 147.53 100.646 147.225C101.843 146.132 102.454 144.897 102.609 143.274C102.782 141.458 101.36 139.47 99.7542 138.76Z" fill="#F1AC56"/>
<path d="M126.285 138.312C124.584 136.555 122.198 135.736 119.818 135.487C116.816 135.176 114.352 136.029 112.571 138.551C112.357 138.853 112.18 139.162 112.02 139.475C110.702 138.878 109.13 138.79 107.7 139.038C107.386 139.092 107.09 139.192 106.808 139.322C104.851 140.009 103.524 142.165 103.762 144.22C104.022 146.474 105.397 148.37 107.711 148.883C109.698 149.323 111.603 148.815 113.157 147.532L113.189 147.499C114.193 148.605 115.549 149.438 117.157 149.794C117.566 149.886 117.97 149.931 118.376 149.955C119.262 150.119 120.169 150.075 121.01 149.82C121.143 149.831 121.273 149.844 121.409 149.851C127.088 150.091 130.086 142.234 126.285 138.312Z" fill="#F1AC56"/>
<path d="M147.865 134.487C147.837 134.277 147.798 134.069 147.732 133.864C147.374 132.782 146.308 131.695 145.053 131.83C143.689 131.975 142.506 132.473 141.77 133.716C141.371 134.393 141.279 135.122 141.378 135.814C139.15 135.946 137.304 137.642 137.233 139.923C137.175 140.114 137.124 140.303 137.088 140.491C136.754 142.177 137.543 144.259 139.44 144.628C140.664 144.868 141.748 144.969 142.975 144.735C145.236 144.305 146.6 142.24 146.687 140.052C146.711 139.467 146.568 138.908 146.325 138.393C147.346 137.787 148.022 136.638 147.957 135.473L147.968 135.393C147.957 135.013 147.836 134.172 147.865 134.487Z" fill="#F1AC56"/>
<path d="M189.378 128.409C188.506 128.409 187.7 128.709 187.038 129.196L186.938 128.942C186.809 128.667 186.502 127.811 186.892 128.985C186.702 128.414 186.422 127.769 186.078 127.255C184.468 124.853 181.961 123.857 179.128 124.285C180.776 124.037 178.891 124.248 178.34 124.433C177.502 124.711 176.746 125.104 176.114 125.735C174.907 126.939 174.366 128.817 174.815 130.47L174.756 130.818C174.113 130.783 173.42 130.853 172.94 131.027C171.783 131.448 171.054 132.061 170.325 132.933C169.91 132.799 169.481 132.708 169.027 132.708C166.919 132.708 165.129 134.27 164.755 136.28C164.338 135.897 163.869 135.568 163.426 135.33C162.022 134.576 160.47 134.341 158.92 134.735C157.229 135.165 155.817 136.891 155.885 138.668L155.83 138.734C155.243 139.562 155.282 140.722 155.487 141.654C155.714 142.692 156.602 143.606 157.478 144.157C158.495 144.798 159.834 145.045 161.019 144.925C162.388 144.789 164.032 144.443 164.993 143.35C165.584 142.677 166.063 142.005 166.277 141.117C166.331 140.886 166.349 140.67 166.369 140.453C167.111 141.035 168.027 141.401 169.027 141.401C169.708 141.401 170.345 141.223 170.925 140.936C171.155 141.102 171.4 141.245 171.659 141.365C172.072 142.051 172.861 142.768 173.679 142.9C174.853 143.093 175.817 143.303 177.019 143.063C178.79 142.71 179.907 140.998 180.487 139.431C180.709 138.834 180.781 138.239 180.745 137.664C181.58 137.662 182.406 137.558 183.103 137.402C184.389 137.114 185.637 136.223 186.485 135.094C187.217 135.873 188.245 136.372 189.378 136.372C191.552 136.372 193.365 134.561 193.365 132.39C193.365 130.22 191.552 128.409 189.378 128.409Z" fill="#F1AC56"/>
<path d="M203.204 121.94C202.477 120.615 201.321 119.879 199.956 119.343C198.85 118.907 197.344 118.759 196.222 119.187C194.378 119.887 193.011 121.312 193.011 123.396C193.011 124.236 193.241 124.962 193.627 125.582C193.712 126.565 194.05 127.197 194.651 127.972C195.045 128.48 195.682 128.85 196.268 129.113C197.499 129.67 198.891 130.215 200.25 129.695C201.91 129.063 202.925 127.991 203.536 126.341C204.073 124.89 203.949 123.294 203.204 121.94Z" fill="#F1AC56"/>
</g>
<defs>
<clipPath id="clip0_1_320">
<rect width="222" height="91.2907" fill="white" transform="translate(0.205261 76.9502)"/>
</clipPath>
</defs>
</svg>
