<svg width="222" height="169" viewBox="0 0 222 169" fill="none" xmlns="http://www.w3.org/2000/svg">
<g clip-path="url(#clip0_1_322)">
<path d="M167.341 92.5682C172.892 88.4922 182.007 91.5035 182.007 101.311C184.675 95.8074 196.339 97.1399 195.738 106.361C199.355 103.975 204.346 106.134 204.186 111.237C209.083 108.612 218.077 114.009 216.117 121.977C213.46 121.111 210.324 121.564 207.749 123.683C206.187 117.62 199.782 115.741 194.177 116.128C189.815 116.433 186.117 119.725 184.716 123.176C182.273 121.644 179.057 121.311 175.494 122.124C169.382 123.51 165.819 127.294 165.045 132.557C162.31 127.454 154.81 129.612 153.916 134.343C151.981 127.454 145.135 125.455 140.464 125.961C136.448 126.388 131.296 128.626 129.775 134.502C126.452 131.316 121.074 128.973 115.216 129.452C110.812 129.812 106.729 132.077 104.233 135.42C103.566 129.544 92.1696 127.334 87.8993 132.85C85.8442 130.452 82.3746 128.6 78.5847 128.28C74.7948 127.973 69.7238 128.946 66.8013 132.397C65.9739 126.922 58.4475 123.548 53.2163 125.547C51.5749 119.312 39.1643 114.795 33.3727 125.015C32.7054 118.793 27.8079 116.354 23.3641 116.354C16.6784 116.354 13.1287 121.458 12.9152 124.562C11.3138 123.669 9.52559 123.456 7.81746 123.789C5.65695 115.914 14.9569 109.878 20.2548 113.463C18.9203 105.468 28.702 102.137 33.2125 107.467C31.3843 100.311 38.8573 95.2611 44.6623 97.3931C46.692 89.9979 59.1014 85.6673 65.4001 93.9153C66.2942 88.5854 71.4986 85.0944 77.9175 85.9871C80.9067 86.4002 83.2553 87.8925 84.7633 89.758C86.9785 83.7352 96.3479 82.4694 99.4292 87.8126C101.364 77.0609 119.74 72.1281 127.12 83.5087C129.575 82.2695 132.644 81.9084 136.127 82.8158C141.692 84.2682 144.641 88.9718 145.028 92.5828C148.418 82.8158 164.285 84.588 167.327 92.5682H167.341Z" fill="#D87639"/>
<path d="M33.3726 125.015C39.1642 114.795 51.5748 119.312 53.2162 125.547C58.4474 123.548 65.9738 126.922 66.8012 132.397C69.7237 128.946 74.7947 127.973 78.5846 128.28C82.3745 128.6 85.8442 130.452 87.8992 132.85C92.1696 127.334 103.566 129.544 104.233 135.42C106.729 132.077 110.812 129.812 115.216 129.452C121.074 128.973 126.452 131.316 129.775 134.502C131.296 128.626 136.447 126.388 140.464 125.961C145.135 125.455 151.981 127.454 153.916 134.343C154.81 129.612 162.31 127.454 165.045 132.557C165.819 127.294 169.382 123.51 175.494 122.124C179.057 121.311 182.273 121.644 184.715 123.176C186.051 119.887 189.484 116.771 193.58 116.22C190.203 112.956 183.884 113.428 182.006 117.3C182.006 107.493 172.892 104.482 167.341 108.558H167.327C164.285 100.578 148.418 98.8055 145.028 108.572C144.641 104.961 141.692 100.258 136.127 98.8055C132.644 97.8981 129.575 98.2592 127.12 99.4984C119.74 88.1177 101.364 93.0506 99.4291 103.802C96.3478 98.4591 86.9785 99.7249 84.7632 105.748C83.2553 103.882 80.9066 102.39 77.9174 101.977C71.4986 101.084 66.2941 104.575 65.4 109.905C59.1013 101.657 46.692 105.988 44.6622 113.383C38.8573 111.251 31.3842 116.301 33.2125 123.456L33.0443 123.288C33.1885 123.832 33.3059 124.4 33.3726 125.015Z" fill="#B74F2F"/>
<path d="M192.395 126.565C192.395 137.786 158.788 146.885 117.331 146.885C75.8754 146.885 42.2666 137.786 42.2666 126.565C42.2666 115.344 75.8754 106.245 117.331 106.245C158.788 106.245 192.395 115.344 192.395 126.565Z" fill="#612D26"/>
<path d="M216.117 121.977C219.599 123.095 222.294 126.454 221.974 131.224C221.48 138.766 216.516 141.019 211.405 140.285C211.405 141.643 211.098 143.097 210.418 144.549C208.056 149.652 199.742 151.664 191.735 148.107C189.761 158.7 175.721 159.286 170.263 155.86C167.514 162.084 158.401 163.87 153.529 159.912C151.434 166.108 140.224 167.348 136.287 161.098C132.631 166.428 126.399 169.093 116.27 168.094C110.693 167.534 107.263 165.682 105.234 163.39C96.5334 171.666 81.8675 166.255 79.5722 159.1C77.2502 162.258 71.9123 164.256 65.4001 163.097C61.7569 162.444 58.0871 159.979 56.4324 156.395C51.1212 162.764 38.1501 159.525 37.2159 151.771C30.9839 154.05 19.5208 153.437 15.8643 147.947C14.5832 146.028 13.8493 144.163 13.5423 142.404C5.4821 143.018 0.304348 139.432 0.0107635 133.45C-0.229442 128.599 3.58716 124.575 7.81745 123.789C9.52557 123.456 11.3138 123.669 12.9151 124.562C13.1287 121.457 16.6784 116.354 23.3641 116.354C27.8079 116.354 32.7054 118.792 33.3727 125.015C39.1643 114.795 51.5749 119.312 53.2163 125.547C58.4474 123.548 65.9739 126.922 66.8013 132.397C69.7238 128.946 74.7948 127.973 78.5847 128.28C82.3746 128.599 85.8442 130.451 87.8993 132.85C92.1696 127.334 103.566 129.544 104.233 135.42C106.729 132.077 110.812 129.812 115.216 129.452C121.074 128.972 126.452 131.316 129.775 134.502C131.296 128.626 136.448 126.387 140.464 125.961C145.135 125.455 151.981 127.453 153.916 134.342C154.81 129.612 162.31 127.453 165.045 132.557C165.819 127.294 169.382 123.509 175.494 122.124C179.057 121.311 182.273 121.644 184.716 123.176C186.117 119.725 189.815 116.433 194.177 116.127C199.782 115.741 206.187 117.62 207.749 123.683C210.324 121.564 213.46 121.111 216.117 121.977Z" fill="#E88D3A"/>
<path d="M216.735 122.234C216.164 129.2 211.5 131.292 206.69 130.603C206.69 131.899 206.398 133.283 205.751 134.666C203.498 139.53 195.575 141.448 187.945 138.057C186.062 148.153 172.682 148.712 167.481 145.448C164.86 151.379 156.176 153.081 151.532 149.307C149.535 155.213 138.853 156.395 135.101 150.439C131.614 155.518 125.676 158.059 116.023 157.106C110.707 156.572 107.437 154.806 105.505 152.624C97.2125 160.509 83.2339 155.353 81.048 148.534C78.8341 151.543 73.7471 153.449 67.5418 152.344C64.0681 151.722 60.5705 149.373 58.9945 145.956C53.9315 152.026 41.5715 148.941 40.6801 141.55C34.7404 143.72 23.815 143.137 20.3307 137.904C19.1097 136.077 18.409 134.3 18.1168 132.623C10.7065 133.186 5.86632 130.021 5.28182 124.677C2.18583 126.281 -0.178857 129.601 0.010639 133.45C0.304224 139.432 5.48198 143.018 13.5422 142.404C13.8491 144.163 14.5831 146.028 15.8642 147.947C19.5207 153.437 30.9838 154.05 37.2158 151.771C38.15 159.525 51.1211 162.764 56.4323 156.395C58.087 159.979 61.7568 162.444 65.3999 163.097C71.9122 164.256 77.2501 162.258 79.5721 159.1C81.8674 166.255 96.5332 171.666 105.234 163.39C107.262 165.682 110.693 167.534 116.27 168.094C126.399 169.093 132.631 166.428 136.287 161.098C140.224 167.348 151.434 166.108 153.529 159.912C158.401 163.87 167.514 162.084 170.263 155.86C175.721 159.286 189.761 158.7 191.735 148.107C199.742 151.664 208.055 149.652 210.417 144.549C211.098 143.097 211.405 141.643 211.405 140.285C216.516 141.019 221.48 138.766 221.974 131.224C222.276 126.747 219.907 123.537 216.735 122.234Z" fill="#D87639"/>
<path d="M55.2288 134.724L54.9672 134.53C54.6149 134.107 54.1839 133.758 53.6861 133.519C53.2604 132.207 52.3877 131.067 51.1039 130.265C50.2872 129.756 49.1729 129.484 48.1561 129.58C48.1801 129.327 48.1988 129.074 48.1828 128.83C48.0813 127.395 47.5756 126.24 46.6214 125.164C45.0467 123.391 41.9815 123.491 40.3894 125.134C39.2178 126.341 39.0803 127.967 39.6822 129.291C39.4059 130.458 39.8316 131.74 40.635 132.624C41.3249 133.386 42.5713 133.738 43.5855 133.671C43.0677 134.88 42.9636 136.293 43.3133 137.51C44.0058 139.906 46.1957 140.885 48.4109 140.761C49.2196 140.896 50.0564 140.905 50.9318 140.884L51.0599 140.938H51.0652C52.4624 141.511 54.0171 141.381 55.2288 140.171C56.594 138.806 56.8715 136.04 55.2288 134.724Z" fill="#F1AC56"/>
<path d="M74.8053 133.35C73.4962 133.65 72.1791 134.269 71.1128 135.147C70.7885 134.939 70.4362 134.765 70.0399 134.604C71.6172 135.247 70.6658 134.828 70.2801 134.636C69.2806 134.136 68.5973 133.987 67.495 133.871C66.649 133.783 65.5908 134.095 64.8768 134.536C64.0267 135.062 63.0712 136.029 62.9218 137.047C62.759 138.153 62.7576 138.327 62.9231 139.43C63.1166 140.733 64.4671 141.839 65.6628 142.167C66.0405 142.271 66.4422 142.307 66.8452 142.289L66.9919 142.344C67.8607 142.572 68.66 142.468 69.4527 142.216C69.7236 142.752 70.0572 143.254 70.4723 143.691C70.9754 144.88 71.9588 145.891 73.4254 146.376C76.053 147.245 79.3932 146.776 81.5924 145.138C84.9099 142.672 86.1203 138.384 83.1765 135.087C81.2174 132.895 77.4622 132.741 74.8053 133.35Z" fill="#F1AC56"/>
<path d="M58.729 128.863C57.1957 128.863 55.9146 130.141 55.9146 131.674C55.9146 133.206 57.1957 134.484 58.729 134.484C60.2623 134.484 61.5434 133.206 61.5434 131.674C61.5434 130.141 60.2623 128.863 58.729 128.863Z" fill="#F1AC56"/>
<path d="M131.679 142.891C130.287 142.891 129.125 144.051 129.125 145.442C129.125 146.833 130.287 147.992 131.679 147.992C133.071 147.992 134.234 146.833 134.234 145.442C134.234 144.051 133.071 142.891 131.679 142.891Z" fill="#F1AC56"/>
<path d="M99.5489 138.82C98.5187 138.364 97.738 138.109 96.5811 138.084C95.5375 138.06 94.4699 138.486 93.5691 138.953C91.1124 140.223 89.87 143.606 91.4073 146.014C91.877 146.746 92.5123 147.325 93.2556 147.697C93.8467 148.329 94.6087 148.8 95.4508 148.98C96.6771 149.241 97.7434 149.029 98.8617 148.477L99.0498 148.356C99.9079 147.687 100.013 147.611 99.3621 148.13C99.7478 147.89 100.104 147.59 100.44 147.285C101.637 146.192 102.249 144.957 102.403 143.334C102.577 141.519 101.154 139.53 99.5489 138.82Z" fill="#F1AC56"/>
<path d="M126.08 138.372C124.378 136.616 121.992 135.796 119.613 135.547C116.61 135.237 114.147 136.089 112.364 138.612C112.152 138.914 111.973 139.222 111.814 139.535C110.497 138.938 108.925 138.852 107.495 139.098C107.181 139.153 106.885 139.253 106.603 139.382C104.645 140.069 103.319 142.225 103.557 144.28C103.817 146.535 105.19 148.431 107.505 148.944C109.492 149.383 111.398 148.876 112.951 147.593L112.983 147.559C113.988 148.665 115.344 149.498 116.952 149.854C117.36 149.946 117.765 149.991 118.17 150.016C119.056 150.18 119.964 150.135 120.805 149.88C120.938 149.891 121.068 149.906 121.204 149.911C126.883 150.151 129.879 142.296 126.08 138.372Z" fill="#F1AC56"/>
<path d="M147.66 134.546C147.632 134.337 147.593 134.129 147.526 133.924C147.169 132.842 146.102 131.755 144.848 131.889C143.484 132.035 142.3 132.533 141.565 133.776C141.165 134.453 141.074 135.182 141.173 135.874C138.943 136.005 137.099 137.702 137.028 139.983C136.969 140.173 136.918 140.363 136.882 140.551C136.549 142.239 137.337 144.319 139.235 144.689C140.459 144.928 141.542 145.029 142.77 144.796C145.031 144.365 146.395 142.301 146.481 140.112C146.504 139.527 146.363 138.969 146.12 138.453C147.141 137.847 147.817 136.698 147.752 135.532L147.762 135.452C147.752 135.073 147.63 134.232 147.66 134.546Z" fill="#F1AC56"/>
<path d="M189.173 128.469C188.302 128.469 187.496 128.769 186.834 129.256L186.734 129.002C186.604 128.727 186.297 127.871 186.687 129.044C186.497 128.475 186.217 127.829 185.872 127.315C184.263 124.912 181.756 123.918 178.922 124.345C180.571 124.097 178.687 124.309 178.136 124.493C177.298 124.771 176.541 125.164 175.91 125.795C174.702 126.999 174.161 128.877 174.61 130.531L174.551 130.878C173.908 130.843 173.215 130.914 172.735 131.088C171.578 131.508 170.849 132.121 170.121 132.993C169.706 132.861 169.276 132.767 168.822 132.767C166.714 132.767 164.924 134.33 164.551 136.34C164.132 135.957 163.665 135.628 163.221 135.39C161.818 134.637 160.266 134.401 158.715 134.795C157.024 135.224 155.612 136.951 155.679 138.728L155.626 138.794C155.038 139.622 155.077 140.782 155.283 141.714C155.51 142.752 156.397 143.666 157.274 144.217C158.291 144.858 159.628 145.105 160.814 144.985C162.183 144.85 163.827 144.502 164.788 143.411C165.379 142.738 165.858 142.065 166.072 141.177C166.127 140.946 166.144 140.73 166.164 140.513C166.906 141.095 167.823 141.46 168.822 141.46C169.503 141.46 170.141 141.283 170.72 140.995C170.951 141.162 171.195 141.305 171.454 141.424C171.868 142.111 172.656 142.828 173.473 142.961C174.649 143.153 175.612 143.363 176.814 143.123C178.585 142.77 179.702 141.058 180.283 139.491C180.504 138.894 180.576 138.3 180.54 137.724C181.376 137.721 182.2 137.618 182.898 137.462C184.185 137.174 185.432 136.282 186.28 135.154C187.013 135.933 188.039 136.432 189.173 136.432C191.347 136.432 193.16 134.621 193.16 132.45C193.16 130.28 191.347 128.469 189.173 128.469Z" fill="#F1AC56"/>
<path d="M202.999 122C202.272 120.675 201.116 119.938 199.751 119.403C198.645 118.967 197.14 118.819 196.017 119.247C194.173 119.946 192.807 121.372 192.807 123.456C192.807 124.296 193.036 125.022 193.422 125.643C193.507 126.625 193.845 127.258 194.447 128.033C194.84 128.54 195.477 128.91 196.063 129.172C197.294 129.729 198.686 130.274 200.045 129.756C201.705 129.123 202.719 128.051 203.33 126.401C203.868 124.95 203.744 123.354 202.999 122Z" fill="#F1AC56"/>
<mask id="mask0_1_322" style="mask-type:luminance" maskUnits="userSpaceOnUse" x="52" y="31" width="119" height="116">
<path d="M167.588 111.473C165.933 95.8167 163.678 81.1062 160.648 71.9654C152.495 47.3027 133.479 31.9793 110.993 31.9793C88.5201 31.9793 69.5038 47.3027 61.3502 71.9654C58.0674 81.919 55.6786 98.4683 53.9705 115.657C53.2766 122.693 52.6894 129.848 52.197 136.684C65.1534 142.773 89.4676 146.89 117.331 146.89C137.896 146.89 156.525 144.652 170.085 141.027C169.469 131.567 168.642 121.334 167.588 111.473Z" fill="white"/>
</mask>
<g mask="url(#mask0_1_322)">
<path d="M110.999 178.04C122.936 178.04 160.821 175.966 169.643 170.266C168.087 131.402 164.496 89.9938 158.746 72.5864C151.015 49.1935 133.034 33.9834 110.999 33.9834C88.9672 33.9834 70.9838 49.1935 63.2558 72.5864C57.5029 89.9938 53.9145 131.402 52.3558 170.266C61.1781 175.966 99.0651 178.04 110.999 178.04Z" fill="#CD5C29"/>
<path d="M110.999 153.789C87.5553 153.789 66.991 141.269 55.3584 122.446C53.9999 137.56 53.0017 154.128 52.3558 170.266C61.1781 175.966 99.0651 178.04 110.999 178.04C122.936 178.04 160.821 175.966 169.643 170.266C168.997 154.128 167.999 137.56 166.643 122.446C155.009 141.269 134.443 153.789 110.999 153.789Z" fill="#BA4927"/>
<path d="M59.6954 171.633C61.1647 134.981 64.5503 95.9286 69.9749 79.5112C77.2652 57.4495 94.225 43.1028 115.003 43.1028C135.783 43.1028 152.743 57.4495 160.033 79.5112C161.026 82.5213 160.247 77.1315 158.746 72.5864C151.015 49.1935 133.034 33.9834 110.999 33.9834C88.9672 33.9834 70.9838 49.1935 63.2558 72.5864C57.5029 89.9938 53.9145 131.402 52.3558 170.266C55.4518 172.266 61.7359 172.951 59.6954 171.633Z" fill="#E6894A"/>
<path d="M54.4069 169.131C64.0872 173.977 98.3632 176.041 110.999 176.041C123.636 176.041 157.914 173.977 167.594 169.131C165.732 123.784 161.723 87.9791 156.844 73.2126C149.256 50.2488 131.689 35.9821 110.999 35.9821C90.3097 35.9821 72.7426 50.2488 65.1561 73.2126C60.2759 87.9791 56.2672 123.784 54.4069 169.131ZM110.999 180.038C103.665 180.038 61.4863 178.546 51.2682 171.945C50.6744 171.561 50.3274 170.892 50.3568 170.186C51.2456 147.966 54.0987 93.9152 61.3529 71.9601C69.4998 47.3027 88.5241 31.9846 110.999 31.9846C133.477 31.9846 152.499 47.3027 160.646 71.9601C167.9 93.9152 170.753 147.966 171.645 170.186C171.671 170.892 171.324 171.561 170.73 171.945C160.515 178.546 118.336 180.038 110.999 180.038Z" fill="#100F0D"/>
<path d="M119.439 117.425L119.452 117.479C119.452 121.715 115.675 128.883 111.005 128.883C106.334 128.883 102.544 121.715 102.544 117.479L102.571 117.425C105.12 118.238 107.989 118.705 111.005 118.705C114.033 118.705 116.89 118.238 119.439 117.425Z" fill="#F8F8F8"/>
<path d="M111.005 92.9346C121.68 92.9346 130.355 98.7042 130.355 105.82C130.355 110.923 125.897 115.332 119.439 117.425C116.89 118.238 114.033 118.705 111.005 118.705C107.989 118.705 105.12 118.238 102.571 117.425V117.412C96.1119 115.332 91.6548 110.923 91.6548 105.82C91.6548 98.7042 100.316 92.9346 111.005 92.9346Z" fill="#FDEAB3"/>
<path d="M119.786 101.121C119.786 104.25 115.853 108.263 110.999 108.263C106.148 108.263 102.216 104.25 102.216 101.121C102.216 97.9953 106.148 96.9373 110.999 96.9373C115.853 96.9373 119.786 97.9953 119.786 101.121Z" fill="#100F0D"/>
<path d="M110.75 100.139C110.871 100.957 109.764 101.804 108.278 102.027C106.79 102.251 105.481 101.77 105.359 100.951C105.237 100.133 106.342 99.2865 107.83 99.0626C109.315 98.8388 110.624 99.3211 110.75 100.139Z" fill="white"/>
<path d="M110.999 117.368C101.067 117.368 92.9839 112.187 92.9839 105.82C92.9839 99.4503 101.067 94.271 110.999 94.271C120.935 94.271 129.015 99.4503 129.015 105.82C129.015 112.187 120.935 117.368 110.999 117.368ZM112 127.387V119.997C114.067 119.929 116.05 119.655 117.917 119.199C117.223 122.514 114.768 126.557 112 127.387ZM104.084 119.199C105.948 119.655 107.934 119.929 109.998 119.997V127.387C107.233 126.557 104.778 122.514 104.084 119.199ZM131.684 105.82C131.684 97.9819 122.405 91.6061 110.999 91.6061C99.5936 91.6061 90.315 97.9819 90.315 105.82C90.315 111.237 94.7534 115.954 101.262 118.351C101.721 122.947 105.607 130.22 110.999 130.22C116.395 130.22 120.278 122.947 120.74 118.351C127.248 115.954 131.684 111.237 131.684 105.82Z" fill="#100F0D"/>
<path d="M98.0843 107.06H87.5526C87.1843 107.06 86.8854 106.763 86.8854 106.394C86.8854 106.026 87.1843 105.728 87.5526 105.728H98.0843C98.4526 105.728 98.7515 106.026 98.7515 106.394C98.7515 106.763 98.4526 107.06 98.0843 107.06Z" fill="#100F0D"/>
<path d="M88.1878 115.1C87.9489 115.1 87.7167 114.971 87.5993 114.744C87.4271 114.419 87.5526 114.016 87.8782 113.845L97.7747 108.654C98.0976 108.483 98.5046 108.607 98.6741 108.934C98.8462 109.259 98.7208 109.661 98.3952 109.832L88.4987 115.024L88.1878 115.1Z" fill="#100F0D"/>
<path d="M98.0843 104.53L97.7747 104.452L87.8782 99.2611C87.5526 99.0906 87.4271 98.6868 87.5993 98.3617C87.7688 98.0366 88.1758 97.9127 88.4987 98.0819L98.3952 103.273C98.7208 103.444 98.8462 103.847 98.6741 104.173C98.5567 104.399 98.3245 104.53 98.0843 104.53Z" fill="#100F0D"/>
<path d="M134.446 107.06H123.917C123.546 107.06 123.25 106.763 123.25 106.394C123.25 106.026 123.546 105.728 123.917 105.728H134.446C134.817 105.728 135.113 106.026 135.113 106.394C135.113 106.763 134.817 107.06 134.446 107.06Z" fill="#100F0D"/>
<path d="M133.811 115.1L133.5 115.024L123.606 109.832C123.28 109.661 123.152 109.259 123.325 108.934C123.497 108.607 123.901 108.483 124.227 108.654L134.12 113.845C134.446 114.016 134.574 114.419 134.402 114.744C134.282 114.971 134.05 115.1 133.811 115.1Z" fill="#100F0D"/>
<path d="M123.917 104.53C123.677 104.53 123.445 104.399 123.325 104.173C123.152 103.847 123.28 103.444 123.606 103.273L133.5 98.0819C133.826 97.9127 134.23 98.0366 134.402 98.3617C134.574 98.6868 134.446 99.0906 134.12 99.2611L124.227 104.452L123.917 104.53Z" fill="#100F0D"/>
<path d="M87.231 91.8286C87.231 95.7541 84.0443 98.936 80.1129 98.936C76.1829 98.936 72.9962 95.7541 72.9962 91.8286C72.9962 87.9032 76.1829 84.7225 80.1129 84.7225C84.0443 84.7225 87.231 87.9032 87.231 91.8286Z" fill="#100F0D"/>
<path d="M80.1116 89.9418C80.1116 91.1064 79.1654 92.0511 78.0004 92.0511C76.8327 92.0511 75.8866 91.1064 75.8866 89.9418C75.8866 88.7773 76.8327 87.8325 78.0004 87.8325C79.1654 87.8325 80.1116 88.7773 80.1116 89.9418Z" fill="white"/>
<path d="M67.8798 76.6718C75.4929 77.795 89.4809 80.5306 98.4232 84.115C101.549 77.0395 102.172 68.9168 99.6509 61.3163C99.7217 65.5856 99.2079 68.8302 98.3685 71.2473C86.896 65.7948 76.0187 62.91 72.1714 62.0959C70.2978 65.2205 68.1133 71.8056 67.8798 76.6718Z" fill="#100F0D"/>
<path d="M149.004 91.8286C149.004 95.7541 145.816 98.936 141.886 98.936C137.954 98.936 134.768 95.7541 134.768 91.8286C134.768 87.9032 137.954 84.7225 141.886 84.7225C145.816 84.7225 149.004 87.9032 149.004 91.8286Z" fill="#100F0D"/>
<path d="M141.883 89.9418C141.883 91.1064 140.937 92.0511 139.772 92.0511C138.604 92.0511 137.658 91.1064 137.658 89.9418C137.658 88.7773 138.604 87.8325 139.772 87.8325C140.937 87.8325 141.883 88.7773 141.883 89.9418Z" fill="white"/>
<path d="M154.12 76.6718C146.506 77.795 132.52 80.5306 123.575 84.115C120.453 77.0395 119.827 68.9168 122.348 61.3163C122.277 65.5856 122.791 68.8302 123.63 71.2473C135.104 65.7948 145.983 62.91 149.83 62.0959C151.704 65.2205 153.888 71.8056 154.12 76.6718Z" fill="#100F0D"/>
</g>
<path d="M50.5327 136.372L50.458 136.573C44.5383 134.364 39.3472 131.442 35.4679 128.382C42.662 124.611 53.8689 123.226 56.9422 123.36L58.0032 123.732C56.614 127.764 54.2159 132.02 50.5327 136.372Z" fill="#FDEAB3"/>
<path d="M58.003 123.732L56.9421 123.36C46.0341 121.832 39.6486 118.894 33.1377 114.629C39.0935 111.689 48.6123 109.181 58.0938 110.435L59.2281 110.201C59.95 114.266 59.7205 118.838 58.003 123.732Z" fill="#FDEAB3"/>
<path d="M53.5406 98.331C56.2095 101.39 58.3634 105.449 59.2281 110.201L58.0938 110.435C47.6275 107.95 40.3626 104.663 34.144 102.5C39.7901 99.2145 45.9461 97.325 53.5406 98.331Z" fill="#FDEAB3"/>
<path d="M84.7476 126.522C84.1644 134.044 76.8034 142.167 62.2776 139.758C58.1595 139.083 54.1667 137.959 50.4582 136.573L50.5329 136.372C54.2161 132.02 56.6142 127.764 58.0034 123.732C59.7208 118.838 59.9503 114.266 59.2284 110.201C58.3636 105.449 56.2098 101.39 53.5408 98.3311C57.3161 98.8295 61.4289 100.042 66.0075 102.154C76.642 107.075 85.4121 118.014 84.7476 126.522Z" fill="#CD5C29"/>
<path d="M78.0282 134.901C75.4086 136.949 70.6098 139.111 62.6137 137.787C59.4029 137.252 56.1762 136.425 53.0455 135.37C63.3543 121.952 62.192 109.423 57.1824 101.096C59.6485 101.718 62.2987 102.65 65.1679 103.975C68.416 105.478 71.5987 107.644 74.3691 110.233C79.9125 115.417 83.1232 121.601 82.7536 126.374C82.4987 129.645 80.7759 132.754 78.0282 134.901ZM55.9386 125.362C54.6722 128.285 52.848 131.312 50.3765 134.41C46.4158 132.869 42.6806 130.962 39.4405 128.79C45.4924 126.45 52.8707 125.477 55.9386 125.362ZM37.4548 114.954C42.9515 112.898 50.4086 111.432 57.8336 112.418C57.967 112.434 58.0925 112.401 58.2166 112.393C58.4808 115.209 58.2353 118.235 57.3545 121.416L57.2264 121.377C48.3361 120.132 42.6779 117.976 37.4548 114.954ZM40.1264 102.572C39.7955 102.447 39.4712 102.324 39.1509 102.205C42.9489 100.59 47.6062 99.5516 53.4792 100.364C55.2113 102.61 56.5912 105.256 57.4346 108.207C50.4526 106.475 44.9719 104.408 40.1264 102.572ZM77.1088 107.316C74.0274 104.438 70.4831 102.029 66.852 100.348C54.1304 94.4628 43.7335 94.5961 33.1458 100.775C32.4705 101.168 32.0875 101.918 32.1609 102.695C32.2383 103.472 32.7628 104.134 33.4981 104.388C35.1448 104.959 36.8676 105.612 38.7052 106.309C40.783 107.096 42.9675 107.925 45.3389 108.754C40.2065 109.602 35.6172 111.181 32.2517 112.84C31.6111 113.157 31.1854 113.796 31.1414 114.513C31.1 115.225 31.4337 115.913 32.0435 116.303C36.0803 118.947 40.1838 121.171 45.4483 122.86C41.7185 123.701 37.7644 124.926 34.5483 126.611C33.9492 126.926 33.5501 127.523 33.4847 128.197C33.43 128.814 33.6596 129.422 34.1106 129.84L34.2361 129.951C41.4422 135.64 51.8031 140.045 61.9598 141.73C71.3892 143.293 77.2435 140.59 80.4996 138.048C84.1241 135.213 86.402 131.071 86.7437 126.685C87.2187 120.641 83.6117 113.4 77.1088 107.316Z" fill="#100F0D"/>
<path d="M171.468 136.372L171.543 136.573C177.463 134.364 182.654 131.442 186.533 128.382C179.339 124.611 168.132 123.226 165.059 123.36L163.998 123.732C165.387 127.764 167.785 132.02 171.468 136.372Z" fill="#FDEAB3"/>
<path d="M163.998 123.732L165.058 123.36C175.966 121.832 182.352 118.894 188.863 114.629C182.907 111.689 173.388 109.181 163.907 110.435L162.772 110.201C162.051 114.266 162.28 118.838 163.998 123.732Z" fill="#FDEAB3"/>
<path d="M168.46 98.331C165.791 101.39 163.637 105.449 162.773 110.201L163.907 110.435C174.373 107.95 181.638 104.663 187.857 102.5C182.211 99.2145 176.055 97.325 168.46 98.331Z" fill="#FDEAB3"/>
<path d="M137.253 126.522C137.837 134.044 145.198 142.167 159.723 139.758C163.842 139.083 167.834 137.959 171.543 136.573L171.468 136.372C167.785 132.02 165.387 127.764 163.998 123.732C162.28 118.838 162.051 114.266 162.773 110.201C163.637 105.449 165.791 101.39 168.46 98.3311C164.685 98.8295 160.572 100.042 155.993 102.154C145.359 107.075 136.589 118.014 137.253 126.522Z" fill="#CD5C29"/>
<path d="M139.247 126.374C138.877 121.601 142.088 115.417 147.632 110.233C150.402 107.644 153.585 105.478 156.833 103.975C159.702 102.65 162.352 101.718 164.818 101.096C159.809 109.423 158.646 121.952 168.955 135.37C165.825 136.425 162.598 137.252 159.387 137.787C151.391 139.111 146.592 136.949 143.973 134.901C141.225 132.754 139.502 129.645 139.247 126.374ZM182.56 128.79C179.32 130.962 175.585 132.869 171.624 134.41C169.153 131.312 167.328 128.285 166.062 125.362C169.13 125.477 176.508 126.45 182.56 128.79ZM164.774 121.377L164.646 121.416C163.765 118.235 163.52 115.209 163.784 112.393C163.908 112.401 164.034 112.434 164.167 112.418C171.592 111.432 179.049 112.898 184.546 114.954C179.323 117.976 173.665 120.132 164.774 121.377ZM164.566 108.207C165.409 105.256 166.789 102.61 168.522 100.364C174.395 99.5516 179.052 100.59 182.85 102.205C182.529 102.324 182.205 102.447 181.874 102.572C177.029 104.408 171.548 106.475 164.566 108.207ZM135.257 126.685C135.599 131.071 137.877 135.213 141.501 138.048C144.757 140.59 150.612 143.293 160.041 141.73C170.198 140.045 180.558 135.64 187.765 129.951L187.89 129.84C188.341 129.422 188.571 128.814 188.516 128.197C188.451 127.523 188.052 126.926 187.452 126.611C184.236 124.926 180.282 123.701 176.552 122.86C181.817 121.171 185.92 118.947 189.957 116.303C190.567 115.913 190.901 115.225 190.859 114.513C190.815 113.796 190.39 113.157 189.749 112.84C186.383 111.181 181.794 109.602 176.662 108.754C179.033 107.925 181.218 107.096 183.295 106.309C185.133 105.612 186.856 104.959 188.503 104.388C189.238 104.134 189.762 103.472 189.84 102.695C189.913 101.918 189.53 101.168 188.855 100.775C178.267 94.5961 167.87 94.4628 155.149 100.348C151.518 102.029 147.973 104.438 144.892 107.316C138.389 113.4 134.782 120.641 135.257 126.685Z" fill="#100F0D"/>
<path d="M216.117 121.977C219.599 123.095 222.294 126.454 221.974 131.224C221.48 138.766 216.516 141.019 211.405 140.285C211.405 141.643 211.098 143.097 210.418 144.549C208.056 149.652 199.742 151.664 191.735 148.107C189.761 158.7 175.721 159.286 170.263 155.86C167.514 162.084 158.401 163.87 153.529 159.912C151.434 166.108 140.224 167.348 136.287 161.098C132.631 166.428 126.399 169.093 116.27 168.094C110.693 167.534 107.263 165.682 105.234 163.39C96.5334 171.666 81.8675 166.255 79.5722 159.1C77.2502 162.258 71.9123 164.256 65.4001 163.097C61.7569 162.444 58.0871 159.979 56.4324 156.395C51.1212 162.764 38.1501 159.525 37.2159 151.771C30.9839 154.05 19.5208 153.437 15.8643 147.947C14.5832 146.028 13.8493 144.163 13.5423 142.404C5.4821 143.018 0.304348 139.432 0.0107635 133.45C-0.229442 128.599 3.58716 124.575 7.81745 123.789C9.52557 123.456 11.3138 123.669 12.9151 124.562C13.1287 121.457 16.6784 116.354 23.3641 116.354C27.8079 116.354 32.7054 118.792 33.3727 125.015C39.1643 114.795 51.5749 119.312 53.2163 125.547C58.4474 123.548 65.9739 126.922 66.8013 132.397C69.7238 128.946 74.7948 127.973 78.5847 128.28C82.3746 128.599 85.8442 130.451 87.8993 132.85C92.1696 127.334 103.566 129.544 104.233 135.42C106.729 132.077 110.812 129.812 115.216 129.452C121.074 128.972 126.452 131.316 129.775 134.502C131.296 128.626 136.448 126.387 140.464 125.961C145.135 125.455 151.981 127.453 153.916 134.342C154.81 129.612 162.31 127.453 165.045 132.557C165.819 127.294 169.382 123.509 175.494 122.124C179.057 121.311 182.273 121.644 184.716 123.176C186.117 119.725 189.815 116.433 194.177 116.127C199.782 115.741 206.187 117.62 207.749 123.683C210.324 121.564 213.46 121.111 216.117 121.977Z" fill="#E88D3A"/>
<path d="M216.735 122.234C216.164 129.2 211.5 131.292 206.69 130.603C206.69 131.899 206.398 133.283 205.751 134.666C203.498 139.53 195.575 141.448 187.945 138.057C186.062 148.153 172.682 148.712 167.481 145.448C164.86 151.379 156.176 153.081 151.532 149.307C149.535 155.213 138.853 156.395 135.101 150.439C131.614 155.518 125.676 158.059 116.023 157.106C110.707 156.572 107.437 154.806 105.505 152.624C97.2125 160.509 83.2339 155.353 81.048 148.534C78.8341 151.543 73.7471 153.449 67.5418 152.344C64.0681 151.722 60.5705 149.373 58.9945 145.956C53.9315 152.026 41.5715 148.941 40.6801 141.55C34.7404 143.72 23.815 143.137 20.3307 137.904C19.1097 136.077 18.409 134.3 18.1168 132.623C10.7065 133.186 5.86632 130.021 5.28182 124.677C2.18583 126.281 -0.178857 129.601 0.010639 133.45C0.304224 139.432 5.48198 143.018 13.5422 142.404C13.8491 144.163 14.5831 146.028 15.8642 147.947C19.5207 153.437 30.9838 154.05 37.2158 151.771C38.15 159.525 51.1211 162.764 56.4323 156.395C58.087 159.979 61.7568 162.444 65.3999 163.097C71.9122 164.256 77.2501 162.258 79.5721 159.1C81.8674 166.255 96.5332 171.666 105.234 163.39C107.262 165.682 110.693 167.534 116.27 168.094C126.399 169.093 132.631 166.428 136.287 161.098C140.224 167.348 151.434 166.108 153.529 159.912C158.401 163.87 167.514 162.084 170.263 155.86C175.721 159.286 189.761 158.7 191.735 148.107C199.742 151.664 208.055 149.652 210.417 144.549C211.098 143.097 211.405 141.643 211.405 140.285C216.516 141.019 221.48 138.766 221.974 131.224C222.276 126.747 219.907 123.537 216.735 122.234Z" fill="#D87639"/>
<path d="M55.2288 134.724L54.9672 134.53C54.6149 134.107 54.1839 133.758 53.6861 133.519C53.2604 132.207 52.3877 131.067 51.1039 130.265C50.2872 129.756 49.1729 129.484 48.1561 129.58C48.1801 129.327 48.1988 129.074 48.1828 128.83C48.0813 127.395 47.5756 126.24 46.6214 125.164C45.0467 123.391 41.9815 123.491 40.3894 125.134C39.2178 126.341 39.0803 127.967 39.6822 129.291C39.4059 130.458 39.8316 131.74 40.635 132.624C41.3249 133.386 42.5713 133.738 43.5855 133.671C43.0677 134.88 42.9636 136.293 43.3133 137.51C44.0058 139.906 46.1957 140.885 48.4109 140.761C49.2196 140.896 50.0564 140.905 50.9318 140.884L51.0599 140.938H51.0652C52.4624 141.511 54.0171 141.381 55.2288 140.171C56.594 138.806 56.8715 136.04 55.2288 134.724Z" fill="#F1AC56"/>
<path d="M74.8053 133.35C73.4962 133.65 72.1791 134.269 71.1128 135.147C70.7885 134.939 70.4362 134.765 70.0399 134.604C71.6172 135.247 70.6658 134.828 70.2801 134.636C69.2806 134.136 68.5973 133.987 67.495 133.871C66.649 133.783 65.5908 134.095 64.8768 134.536C64.0267 135.062 63.0712 136.029 62.9218 137.047C62.759 138.153 62.7576 138.327 62.9231 139.43C63.1166 140.733 64.4671 141.839 65.6628 142.167C66.0405 142.271 66.4422 142.307 66.8452 142.289L66.9919 142.344C67.8607 142.572 68.66 142.468 69.4527 142.216C69.7236 142.752 70.0572 143.254 70.4723 143.691C70.9754 144.88 71.9588 145.891 73.4254 146.376C76.053 147.245 79.3932 146.776 81.5924 145.138C84.9099 142.672 86.1203 138.384 83.1765 135.087C81.2174 132.895 77.4622 132.741 74.8053 133.35Z" fill="#F1AC56"/>
<path d="M58.729 128.863C57.1957 128.863 55.9146 130.141 55.9146 131.674C55.9146 133.206 57.1957 134.484 58.729 134.484C60.2623 134.484 61.5434 133.206 61.5434 131.674C61.5434 130.141 60.2623 128.863 58.729 128.863Z" fill="#F1AC56"/>
<path d="M131.679 142.891C130.287 142.891 129.125 144.051 129.125 145.442C129.125 146.833 130.287 147.992 131.679 147.992C133.071 147.992 134.234 146.833 134.234 145.442C134.234 144.051 133.071 142.891 131.679 142.891Z" fill="#F1AC56"/>
<path d="M99.5489 138.82C98.5187 138.364 97.738 138.109 96.5811 138.084C95.5375 138.06 94.4699 138.486 93.5691 138.953C91.1124 140.223 89.87 143.606 91.4073 146.014C91.877 146.746 92.5123 147.325 93.2556 147.697C93.8467 148.329 94.6087 148.8 95.4508 148.98C96.6771 149.241 97.7434 149.029 98.8617 148.477L99.0498 148.356C99.9079 147.687 100.013 147.611 99.3621 148.13C99.7478 147.89 100.104 147.59 100.44 147.285C101.637 146.192 102.249 144.957 102.403 143.334C102.577 141.519 101.154 139.53 99.5489 138.82Z" fill="#F1AC56"/>
<path d="M126.08 138.372C124.378 136.616 121.992 135.796 119.613 135.547C116.61 135.237 114.147 136.089 112.364 138.612C112.152 138.914 111.973 139.222 111.814 139.535C110.497 138.938 108.925 138.852 107.495 139.098C107.181 139.153 106.885 139.253 106.603 139.382C104.645 140.069 103.319 142.225 103.557 144.28C103.817 146.535 105.19 148.431 107.505 148.944C109.492 149.383 111.398 148.876 112.951 147.593L112.983 147.559C113.988 148.665 115.344 149.498 116.952 149.854C117.36 149.946 117.765 149.991 118.17 150.016C119.056 150.18 119.964 150.135 120.805 149.88C120.938 149.891 121.068 149.906 121.204 149.911C126.883 150.151 129.879 142.296 126.08 138.372Z" fill="#F1AC56"/>
<path d="M147.66 134.546C147.632 134.337 147.593 134.129 147.526 133.924C147.169 132.842 146.102 131.755 144.848 131.889C143.484 132.035 142.3 132.533 141.565 133.776C141.165 134.453 141.074 135.182 141.173 135.874C138.943 136.005 137.099 137.702 137.028 139.983C136.969 140.173 136.918 140.363 136.882 140.551C136.549 142.239 137.337 144.319 139.235 144.689C140.459 144.928 141.542 145.029 142.77 144.796C145.031 144.365 146.395 142.301 146.481 140.112C146.504 139.527 146.363 138.969 146.12 138.453C147.141 137.847 147.817 136.698 147.752 135.532L147.762 135.452C147.752 135.073 147.63 134.232 147.66 134.546Z" fill="#F1AC56"/>
<path d="M189.173 128.469C188.302 128.469 187.496 128.769 186.834 129.256L186.734 129.002C186.604 128.727 186.297 127.871 186.687 129.044C186.497 128.475 186.217 127.829 185.872 127.315C184.263 124.912 181.756 123.918 178.922 124.345C180.571 124.097 178.687 124.309 178.136 124.493C177.298 124.771 176.541 125.164 175.91 125.795C174.702 126.999 174.161 128.877 174.61 130.531L174.551 130.878C173.908 130.843 173.215 130.914 172.735 131.088C171.578 131.508 170.849 132.121 170.121 132.993C169.706 132.861 169.276 132.767 168.822 132.767C166.714 132.767 164.924 134.33 164.551 136.34C164.132 135.957 163.665 135.628 163.221 135.39C161.818 134.637 160.266 134.401 158.715 134.795C157.024 135.224 155.612 136.951 155.679 138.728L155.626 138.794C155.038 139.622 155.077 140.782 155.283 141.714C155.51 142.752 156.397 143.666 157.274 144.217C158.291 144.858 159.628 145.105 160.814 144.985C162.183 144.85 163.827 144.502 164.788 143.411C165.379 142.738 165.858 142.065 166.072 141.177C166.127 140.946 166.144 140.73 166.164 140.513C166.906 141.095 167.823 141.46 168.822 141.46C169.503 141.46 170.141 141.283 170.72 140.995C170.951 141.162 171.195 141.305 171.454 141.424C171.868 142.111 172.656 142.828 173.473 142.961C174.649 143.153 175.612 143.363 176.814 143.123C178.585 142.77 179.702 141.058 180.283 139.491C180.504 138.894 180.576 138.3 180.54 137.724C181.376 137.721 182.2 137.618 182.898 137.462C184.185 137.174 185.432 136.282 186.28 135.154C187.013 135.933 188.039 136.432 189.173 136.432C191.347 136.432 193.16 134.621 193.16 132.45C193.16 130.28 191.347 128.469 189.173 128.469Z" fill="#F1AC56"/>
<path d="M202.999 122C202.272 120.675 201.116 119.938 199.751 119.403C198.645 118.967 197.14 118.819 196.017 119.247C194.173 119.946 192.807 121.372 192.807 123.456C192.807 124.296 193.036 125.022 193.422 125.643C193.507 126.625 193.845 127.258 194.447 128.033C194.84 128.54 195.477 128.91 196.063 129.172C197.294 129.729 198.686 130.274 200.045 129.756C201.705 129.123 202.719 128.051 203.33 126.401C203.868 124.95 203.744 123.354 202.999 122Z" fill="#F1AC56"/>
</g>
<defs>
<clipPath id="clip0_1_322">
<rect width="222" height="136.322" fill="white" transform="translate(0 31.9793)"/>
</clipPath>
</defs>
</svg>
