<svg width="223" height="168" viewBox="0 0 223 168" fill="none" xmlns="http://www.w3.org/2000/svg">
<g clip-path="url(#clip0_1_167)">
<path d="M168.27 92.0085C173.822 87.9325 182.936 90.9438 182.936 100.751C185.605 95.2477 197.269 96.5802 196.668 105.801C200.284 103.416 205.275 105.574 205.115 110.678C210.013 108.053 219.007 113.449 217.047 121.416C214.39 120.551 211.254 121.004 208.678 123.123C207.117 117.06 200.711 115.181 195.107 115.568C190.744 115.873 187.046 119.166 185.645 122.617C183.203 121.083 179.987 120.75 176.424 121.564C170.312 122.95 166.749 126.734 165.975 131.997C163.239 126.894 155.74 129.053 154.846 133.783C152.911 126.894 146.065 124.895 141.394 125.402C137.377 125.828 132.226 128.067 130.705 133.943C127.382 130.757 122.004 128.412 116.146 128.893C111.742 129.252 107.659 131.518 105.163 134.861C104.496 128.985 93.0994 126.774 88.8291 132.29C86.774 129.892 83.3044 128.04 79.5144 127.72C75.7245 127.412 70.6535 128.386 67.731 131.837C66.9036 126.361 59.3772 122.988 54.146 124.987C52.5046 118.751 40.094 114.235 34.3024 124.455C33.6352 118.233 28.7376 115.794 24.2938 115.794C17.6081 115.794 14.0584 120.898 13.8449 124.002C12.2435 123.11 10.4553 122.896 8.7472 123.23C6.58669 115.355 15.8866 109.317 21.1845 112.903C19.85 104.908 29.6318 101.577 34.1423 106.907C32.314 99.7514 39.7871 94.7014 45.592 96.8334C47.6218 89.4368 60.0311 85.1063 66.3298 93.3556C67.2239 88.0257 72.4284 84.5346 78.8472 85.4274C81.8364 85.8405 84.1851 87.3315 85.693 89.1983C87.9083 83.1755 97.2776 81.9096 100.359 87.2529C102.294 76.4998 120.67 71.5684 128.049 82.949C130.505 81.7098 133.574 81.3487 137.057 82.2561C142.622 83.7085 145.571 88.4121 145.958 92.0231C149.348 82.2561 165.214 84.0283 168.257 92.0085H168.27Z" fill="#D87639"/>
<path d="M34.3028 124.455C40.0944 114.235 52.505 118.751 54.1465 124.987C59.3776 122.988 66.904 126.361 67.7314 131.837C70.6539 128.386 75.7249 127.412 79.5148 127.72C83.3048 128.04 86.7744 129.892 88.8295 132.29C93.0998 126.774 104.496 128.985 105.163 134.861C107.659 131.518 111.742 129.252 116.146 128.893C122.005 128.412 127.382 130.757 130.705 133.943C132.227 128.067 137.378 125.828 141.394 125.402C146.065 124.895 152.911 126.894 154.846 133.783C155.74 129.053 163.24 126.894 165.975 131.997C166.749 126.734 170.313 122.95 176.424 121.564C179.987 120.75 183.204 121.083 185.646 122.617C186.981 119.327 190.414 116.212 194.511 115.66C191.133 112.397 184.814 112.867 182.937 116.74C182.937 106.934 173.822 103.922 168.271 107.998H168.257C165.215 100.018 149.348 98.2458 145.958 108.013C145.571 104.402 142.622 99.6981 137.057 98.2458C133.574 97.3383 130.505 97.6995 128.05 98.9387C120.67 87.558 102.294 92.4895 100.359 103.243C97.278 97.8993 87.9087 99.1652 85.6934 105.188C84.1855 103.321 81.8368 101.83 78.8476 101.417C72.4288 100.524 67.2243 104.015 66.3302 109.345C60.0315 101.096 47.6222 105.426 45.5925 112.823C39.7875 110.691 32.3144 115.741 34.1427 122.896L33.9745 122.729C34.1187 123.272 34.2361 123.84 34.3028 124.455Z" fill="#B74F2F"/>
<path d="M193.326 126.005C193.326 137.226 159.718 146.325 118.262 146.325C76.8061 146.325 43.1974 137.226 43.1974 126.005C43.1974 114.784 76.8061 105.685 118.262 105.685C159.718 105.685 193.326 114.784 193.326 126.005Z" fill="#612D26"/>
<path d="M217.047 121.416C220.529 122.535 223.225 125.895 222.904 130.665C222.411 138.207 217.446 140.459 212.335 139.726C212.335 141.083 212.028 142.537 211.348 143.99C208.986 149.093 200.672 151.105 192.665 147.547C190.691 158.14 176.651 158.725 171.193 155.301C168.444 161.525 159.331 163.31 154.459 159.353C152.364 165.549 141.154 166.788 137.218 160.539C133.561 165.869 127.329 168.534 117.2 167.534C111.624 166.975 108.193 165.123 106.164 162.831C97.4636 171.105 82.7977 165.696 80.5024 158.54C78.1804 161.698 72.8425 163.697 66.3303 162.538C62.6872 161.885 59.0174 159.42 57.3626 155.835C52.0514 162.204 39.0803 158.965 38.1462 151.212C31.9142 153.49 20.451 152.877 16.7946 147.387C15.5135 145.469 14.7795 143.603 14.4726 141.844C6.41232 142.457 1.23457 138.873 0.940985 132.89C0.700779 128.04 4.51738 124.016 8.74767 123.23C10.4558 122.897 12.244 123.11 13.8454 124.003C14.0589 120.898 17.6086 115.794 24.2943 115.794C28.7381 115.794 33.6356 118.233 34.3029 124.456C40.0945 114.235 52.5051 118.751 54.1465 124.987C59.3777 122.989 66.9041 126.361 67.7315 131.837C70.654 128.386 75.725 127.412 79.5149 127.72C83.3048 128.04 86.7744 129.892 88.8295 132.29C93.0998 126.774 104.496 128.985 105.164 134.861C107.659 131.518 111.742 129.252 116.146 128.893C122.005 128.412 127.383 130.757 130.705 133.943C132.227 128.067 137.378 125.828 141.395 125.402C146.065 124.895 152.911 126.894 154.846 133.783C155.74 129.053 163.24 126.894 165.976 131.997C166.75 126.734 170.313 122.95 176.425 121.564C179.988 120.75 183.204 121.083 185.646 122.617C187.047 119.166 190.745 115.873 195.107 115.568C200.712 115.182 207.117 117.06 208.679 123.123C211.254 121.004 214.39 120.551 217.047 121.416Z" fill="#E88D3A"/>
<path d="M217.665 121.675C217.094 128.641 212.43 130.733 207.62 130.044C207.62 131.339 207.328 132.724 206.681 134.107C204.428 138.97 196.506 140.889 188.875 137.498C186.992 147.594 173.613 148.152 168.411 144.889C165.79 150.82 157.107 152.521 152.463 148.748C150.465 154.653 139.784 155.835 136.031 149.879C132.544 154.958 126.606 157.499 116.953 156.547C111.637 156.012 108.367 154.247 106.435 152.063C98.1427 159.949 84.1641 154.793 81.9782 147.975C79.7643 150.984 74.6773 152.889 68.472 151.783C64.9984 151.162 61.5007 148.813 59.9247 145.397C54.8617 151.466 42.5018 148.381 41.6103 140.99C35.6706 143.161 24.7452 142.577 21.2609 137.345C20.0399 135.516 19.3393 133.739 19.047 132.064C11.6367 132.626 6.79654 129.462 6.21204 124.117C3.11606 125.721 0.751365 129.042 0.940861 132.89C1.23445 138.873 6.4122 142.457 14.4724 141.844C14.7794 143.603 15.5133 145.469 16.7944 147.387C20.4509 152.877 31.914 153.49 38.146 151.212C39.0802 158.965 52.0513 162.204 57.3625 155.835C59.0172 159.42 62.687 161.885 66.3302 162.538C72.8424 163.697 78.1803 161.698 80.5023 158.54C82.7976 165.696 97.4635 171.105 106.164 162.831C108.193 165.123 111.624 166.975 117.2 167.534C127.329 168.534 133.561 165.869 137.217 160.539C141.154 166.788 152.364 165.549 154.459 159.353C159.331 163.31 168.444 161.525 171.193 155.301C176.651 158.725 190.691 158.14 192.665 147.547C200.672 151.105 208.986 149.093 211.348 143.99C212.028 142.537 212.335 141.083 212.335 139.726C217.446 140.459 222.41 138.207 222.904 130.665C223.206 126.188 220.837 122.978 217.665 121.675Z" fill="#D87639"/>
<path d="M30.7599 125.964L30.7839 125.981L30.84 126.021L30.7599 125.964Z" fill="#F1AC56"/>
<path d="M31.2845 126.368C31.1177 126.24 30.9496 126.11 30.7841 125.981C30.245 125.5 29.6031 125.182 28.9279 125.051C29.1774 124.42 29.3082 123.679 29.2268 123.007C29.0253 121.323 28.4114 120.217 27.0262 119.207C25.9426 118.418 24.4534 118.505 23.2163 118.699C22.1327 118.871 21.0972 119.66 20.3232 120.381C18.4989 122.078 17.4247 124.982 18.7805 127.275C19.8694 129.112 22.2515 129.823 24.2932 129.387C24.2385 129.977 24.3039 130.574 24.5428 131.15C24.8897 131.985 25.0165 132.208 25.5957 132.925C26.1401 133.599 27.145 133.869 27.9644 133.904C28.2299 133.915 28.8865 134.095 28.0498 133.875C29.5751 134.276 31.1177 133.623 31.9411 132.294C32.5016 131.387 32.4856 130.381 32.5216 129.364C32.5483 128.621 32.3521 127.808 31.9491 127.179C31.7809 126.858 31.5594 126.587 31.2845 126.368Z" fill="#F1AC56"/>
<path d="M56.1585 134.164L55.897 133.971C55.5447 133.547 55.1136 133.198 54.6159 132.959C54.1902 131.647 53.3174 130.508 52.0336 129.705C51.2169 129.195 50.1027 128.925 49.0858 129.019C49.1098 128.767 49.1285 128.514 49.1125 128.27C49.0111 126.835 48.5053 125.68 47.5512 124.605C45.9765 122.831 42.9112 122.931 41.3192 124.574C40.1475 125.781 40.01 127.407 40.6119 128.731C40.3356 129.899 40.7613 131.181 41.5647 132.064C42.2546 132.826 43.501 133.178 44.5152 133.111C43.9975 134.32 43.8934 135.734 44.243 136.95C44.9356 139.346 47.1254 140.325 49.3407 140.201C50.1494 140.336 50.9861 140.345 51.8615 140.324L51.9896 140.379H51.995C53.3922 140.952 54.9468 140.821 56.1585 139.611C57.5237 138.247 57.8013 135.48 56.1585 134.164Z" fill="#F1AC56"/>
<path d="M75.7355 132.79C74.4264 133.09 73.1093 133.71 72.043 134.588C71.7188 134.38 71.3665 134.205 70.9701 134.044C72.5475 134.686 71.596 134.268 71.2103 134.075C70.2108 133.575 69.5275 133.427 68.4253 133.311C67.5792 133.223 66.521 133.535 65.807 133.976C64.957 134.502 64.0015 135.468 63.852 136.488C63.6892 137.594 63.6879 137.767 63.8534 138.87C64.0469 140.173 65.3973 141.279 66.593 141.607C66.9707 141.711 67.3724 141.747 67.7754 141.73L67.9222 141.784C68.7909 142.011 69.5903 141.907 70.3829 141.656C70.6538 142.192 70.9875 142.694 71.4025 143.131C71.9056 144.32 72.8891 145.331 74.3557 145.816C76.9833 146.685 80.3234 146.216 82.5227 144.578C85.8402 142.112 87.0505 137.824 84.1067 134.528C82.1477 132.336 78.3925 132.181 75.7355 132.79Z" fill="#F1AC56"/>
<path d="M59.6592 128.302C58.1259 128.302 56.8448 129.58 56.8448 131.114C56.8448 132.646 58.1259 133.924 59.6592 133.924C61.1925 133.924 62.4736 132.646 62.4736 131.114C62.4736 129.58 61.1925 128.302 59.6592 128.302Z" fill="#F1AC56"/>
<path d="M132.61 142.332C131.218 142.332 130.055 143.491 130.055 144.882C130.055 146.273 131.218 147.433 132.61 147.433C134.001 147.433 135.164 146.273 135.164 144.882C135.164 143.491 134.001 142.332 132.61 142.332Z" fill="#F1AC56"/>
<path d="M34.4963 134.364L34.3976 134.437C33.3366 134.733 32.6547 136.145 33.6276 137.118C34.6044 138.093 36.0269 137.404 36.3179 136.342L36.3859 136.251C37.1946 135.158 35.5892 133.554 34.4963 134.364Z" fill="#F1AC56"/>
<path d="M100.48 138.26C99.4494 137.804 98.6688 137.55 97.5118 137.523C96.4682 137.5 95.4006 137.927 94.4999 138.393C92.0431 139.663 90.8007 143.046 92.338 145.453C92.8078 146.187 93.443 146.765 94.1863 147.137C94.7775 147.77 95.5394 148.24 96.3815 148.42C97.6079 148.68 98.6741 148.469 99.7924 147.918L99.9806 147.796C100.839 147.126 100.944 147.052 100.293 147.569C100.679 147.33 101.035 147.03 101.371 146.725C102.568 145.633 103.179 144.397 103.334 142.774C103.508 140.958 102.085 138.97 100.48 138.26Z" fill="#F1AC56"/>
<path d="M127.011 137.812C125.309 136.056 122.923 135.236 120.544 134.987C117.541 134.677 115.078 135.53 113.295 138.052C113.083 138.353 112.904 138.662 112.745 138.975C111.428 138.378 109.856 138.29 108.425 138.538C108.112 138.593 107.815 138.693 107.534 138.822C105.576 139.51 104.25 141.666 104.487 143.72C104.747 145.975 106.121 147.871 108.436 148.384C110.423 148.824 112.329 148.316 113.882 147.033L113.914 146.999C114.919 148.105 116.275 148.938 117.883 149.294C118.291 149.386 118.695 149.431 119.101 149.455C119.987 149.619 120.895 149.575 121.735 149.321C121.869 149.331 121.998 149.345 122.134 149.351C127.814 149.591 130.81 141.735 127.011 137.812Z" fill="#F1AC56"/>
<path d="M148.59 133.987C148.562 133.777 148.523 133.57 148.456 133.364C148.099 132.282 147.033 131.195 145.778 131.33C144.414 131.475 143.231 131.973 142.495 133.216C142.095 133.893 142.004 134.622 142.103 135.314C139.873 135.446 138.029 137.142 137.958 139.423C137.899 139.614 137.849 139.803 137.813 139.991C137.479 141.678 138.268 143.759 140.165 144.128C141.389 144.368 142.473 144.469 143.7 144.235C145.961 143.806 147.325 141.74 147.412 139.552C147.434 138.967 147.293 138.408 147.05 137.893C148.071 137.287 148.747 136.139 148.682 134.973L148.693 134.893C148.682 134.513 148.561 133.672 148.59 133.987Z" fill="#F1AC56"/>
<path d="M190.103 127.909C189.231 127.909 188.425 128.209 187.763 128.697L187.663 128.442C187.534 128.168 187.227 127.311 187.617 128.485C187.427 127.915 187.147 127.27 186.801 126.755C185.193 124.353 182.686 123.358 179.851 123.785C181.501 123.538 179.616 123.748 179.065 123.933C178.227 124.212 177.471 124.605 176.839 125.235C175.632 126.44 175.091 128.317 175.54 129.971L175.481 130.318C174.838 130.284 174.145 130.353 173.665 130.528C172.508 130.949 171.779 131.562 171.05 132.433C170.635 132.3 170.206 132.208 169.752 132.208C167.643 132.208 165.854 133.771 165.48 135.78C165.061 135.398 164.594 135.069 164.151 134.83C162.747 134.076 161.195 133.841 159.645 134.236C157.954 134.665 156.542 136.392 156.609 138.168L156.555 138.235C155.968 139.062 156.007 140.223 156.212 141.154C156.439 142.192 157.327 143.106 158.203 143.658C159.22 144.299 160.557 144.545 161.744 144.425C163.113 144.289 164.757 143.943 165.718 142.85C166.309 142.177 166.788 141.506 167.002 140.617C167.056 140.387 167.074 140.171 167.094 139.954C167.836 140.536 168.752 140.901 169.752 140.901C170.433 140.901 171.07 140.724 171.65 140.436C171.88 140.602 172.125 140.745 172.384 140.865C172.797 141.551 173.586 142.268 174.403 142.4C175.578 142.593 176.542 142.804 177.744 142.564C179.515 142.211 180.632 140.499 181.212 138.932C181.434 138.335 181.506 137.739 181.47 137.165C182.305 137.162 183.13 137.058 183.828 136.902C185.114 136.614 186.362 135.723 187.21 134.594C187.942 135.374 188.968 135.872 190.103 135.872C192.277 135.872 194.09 134.061 194.09 131.891C194.09 129.72 192.277 127.909 190.103 127.909Z" fill="#F1AC56"/>
<path d="M203.929 121.44C203.202 120.116 202.046 119.379 200.681 118.843C199.575 118.407 198.069 118.259 196.947 118.687C195.103 119.387 193.736 120.812 193.736 122.896C193.736 123.736 193.966 124.462 194.352 125.082C194.437 126.065 194.775 126.697 195.376 127.472C195.77 127.98 196.407 128.35 196.992 128.613C198.224 129.17 199.616 129.715 200.975 129.195C202.635 128.563 203.649 127.491 204.26 125.841C204.798 124.39 204.674 122.794 203.929 121.44Z" fill="#F1AC56"/>
<path d="M111.931 149.054C123.866 149.054 161.752 146.981 170.574 141.281C169.017 102.416 165.427 61.0072 159.675 43.6011C151.946 20.2069 133.964 4.99677 111.931 4.99677C89.897 4.99677 71.915 20.2069 64.1857 43.6011C58.4341 61.0072 54.8444 102.416 53.287 141.281C62.1093 146.981 99.995 149.054 111.931 149.054Z" fill="#CD5C29"/>
<path d="M111.931 124.802C88.4865 124.802 67.9209 112.283 56.2883 93.4608C54.9311 108.575 53.9329 125.143 53.287 141.281C62.1093 146.981 99.995 149.054 111.931 149.054C123.866 149.054 161.752 146.981 170.574 141.281C169.928 125.143 168.93 108.575 167.573 93.4608C155.94 112.283 135.375 124.802 111.931 124.802Z" fill="#BA4927"/>
<path d="M60.6267 142.648C62.0946 105.996 65.4815 66.9434 70.9048 50.526C78.195 28.4643 95.1549 14.1175 115.934 14.1175C136.714 14.1175 153.673 28.4643 160.963 50.526C161.957 53.536 161.178 48.1462 159.675 43.6012C151.946 20.207 133.964 4.99684 111.931 4.99684C89.897 4.99684 71.915 20.207 64.1857 43.6012C58.4341 61.0073 54.8444 102.416 53.287 141.281C56.3817 143.281 62.6657 143.966 60.6267 142.648Z" fill="#E6894A"/>
<path d="M55.337 140.145C65.0173 144.992 99.2947 147.056 111.931 147.056C124.567 147.056 158.844 144.992 168.525 140.145C166.663 94.7986 162.654 58.9938 157.775 44.2273C150.188 21.2622 132.621 6.99547 111.931 6.99547C91.2411 6.99547 73.6741 21.2622 66.0862 44.2273C61.2074 58.9938 57.1986 94.7986 55.337 140.145ZM111.931 151.053C104.595 151.053 62.4164 149.561 52.1997 142.958C51.6058 142.574 51.2589 141.906 51.2869 141.201C52.177 118.98 55.0301 64.93 62.2843 42.9748C70.4313 18.3161 89.4542 2.99806 111.931 2.99806C134.407 2.99806 153.43 18.3161 161.577 42.9748C168.832 64.93 171.685 118.98 172.575 141.201C172.603 141.906 172.256 142.574 171.662 142.958C161.445 149.561 119.266 151.053 111.931 151.053Z" fill="#100F0D"/>
<path d="M120.368 88.4387L120.381 88.492C120.381 92.7293 116.605 99.898 111.934 99.898C107.263 99.898 103.474 92.7293 103.474 88.492L103.5 88.4387C106.049 89.2529 108.918 89.7178 111.934 89.7178C114.963 89.7178 117.819 89.2529 120.368 88.4387Z" fill="#F8F8F8"/>
<path d="M111.934 63.9494C122.61 63.9494 131.284 69.719 131.284 76.8331C131.284 81.9378 126.827 86.347 120.368 88.4389C117.819 89.2531 114.964 89.7181 111.934 89.7181C108.918 89.7181 106.049 89.2531 103.5 88.4389V88.4269C97.0415 86.3469 92.5844 81.9378 92.5844 76.8331C92.5844 69.719 101.245 63.9494 111.934 63.9494Z" fill="#FDEAB3"/>
<path d="M120.715 72.1359C120.715 75.2645 116.783 79.2766 111.93 79.2766C107.078 79.2766 103.146 75.2645 103.146 72.1359C103.146 69.0086 107.078 67.9505 111.93 67.9505C116.783 67.9505 120.715 69.0086 120.715 72.1359Z" fill="#100F0D"/>
<path d="M111.68 71.1541C111.802 71.9722 110.695 72.8183 109.209 73.0422C107.721 73.266 106.413 72.7837 106.289 71.9655C106.167 71.1474 107.272 70.3013 108.76 70.0774C110.247 69.8536 111.556 70.3346 111.68 71.1541Z" fill="white"/>
<path d="M111.931 88.3815C101.997 88.3815 93.9152 83.2022 93.9152 76.833C93.9152 70.4651 101.997 65.2845 111.931 65.2845C121.864 65.2845 129.946 70.4651 129.946 76.833C129.946 83.2022 121.864 88.3815 111.931 88.3815ZM112.932 98.4017V91.0118C114.997 90.9439 116.982 90.6694 118.847 90.2124C118.153 93.5289 115.698 97.5716 112.932 98.4017ZM105.014 90.2124C106.88 90.6694 108.864 90.9439 110.93 91.0118V98.4017C108.163 97.5716 105.708 93.5289 105.014 90.2124ZM132.615 76.833C132.615 68.9967 123.336 62.6195 111.931 62.6195C100.525 62.6195 91.2463 68.9967 91.2463 76.833C91.2463 82.2521 95.6834 86.9691 102.192 89.3662C102.652 93.9619 106.537 101.235 111.931 101.235C117.325 101.235 121.209 93.9619 121.67 89.3662C128.178 86.9691 132.615 82.2521 132.615 76.833Z" fill="#100F0D"/>
<path d="M99.0142 78.0747H88.4838C88.1142 78.0747 87.8166 77.7762 87.8166 77.4085C87.8166 77.0407 88.1142 76.7422 88.4838 76.7422H99.0142C99.3838 76.7422 99.6814 77.0407 99.6814 77.4085C99.6814 77.7762 99.3838 78.0747 99.0142 78.0747Z" fill="#100F0D"/>
<path d="M89.1187 86.1149C88.8798 86.1149 88.6476 85.9856 88.5288 85.7591C88.3567 85.434 88.4835 85.0302 88.8091 84.8597L98.7042 79.6671C99.0285 79.4965 99.4342 79.6218 99.605 79.9469C99.7771 80.2734 99.6504 80.6758 99.3248 80.8463L89.4296 86.0389L89.1187 86.1149Z" fill="#100F0D"/>
<path d="M99.0138 75.5446L98.7042 75.4673L88.8091 70.276C88.4835 70.1054 88.3567 69.7017 88.5288 69.3766C88.6996 69.0515 89.1053 68.9275 89.4296 69.0968L99.3248 74.2881C99.6504 74.4586 99.7771 74.8624 99.605 75.1875C99.4862 75.414 99.254 75.5446 99.0138 75.5446Z" fill="#100F0D"/>
<path d="M135.377 78.0747H124.847C124.477 78.0747 124.18 77.7762 124.18 77.4085C124.18 77.0407 124.477 76.7422 124.847 76.7422H135.377C135.747 76.7422 136.045 77.0407 136.045 77.4085C136.045 77.7762 135.747 78.0747 135.377 78.0747Z" fill="#100F0D"/>
<path d="M134.742 86.1149L134.431 86.0389L124.536 80.8463C124.21 80.6758 124.084 80.2734 124.256 79.9469C124.428 79.6218 124.832 79.4965 125.156 79.6671L135.052 84.8597C135.377 85.0302 135.504 85.434 135.332 85.7591C135.213 85.9856 134.981 86.1149 134.742 86.1149Z" fill="#100F0D"/>
<path d="M124.847 75.5446C124.607 75.5446 124.374 75.414 124.256 75.1875C124.084 74.8624 124.21 74.4586 124.536 74.2881L134.431 69.0968C134.755 68.9275 135.161 69.0515 135.332 69.3766C135.504 69.7017 135.377 70.1054 135.052 70.276L125.156 75.4673L124.847 75.5446Z" fill="#100F0D"/>
<path d="M88.1607 62.8422C88.1607 66.769 84.9753 69.9496 81.0426 69.9496C77.1125 69.9496 73.9258 66.769 73.9258 62.8422C73.9258 58.9181 77.1125 55.7361 81.0426 55.7361C84.9753 55.7361 88.1607 58.9181 88.1607 62.8422Z" fill="#100F0D"/>
<path d="M81.0429 60.9551C81.0429 62.1197 80.0967 63.0644 78.9304 63.0644C77.7628 63.0644 76.8179 62.1197 76.8179 60.9551C76.8179 59.7905 77.7628 58.8458 78.9304 58.8458C80.0967 58.8458 81.0429 59.7905 81.0429 60.9551Z" fill="white"/>
<path d="M68.8111 47.6852C76.4242 48.8098 90.4109 51.5453 99.3546 55.1284C102.479 48.0543 103.103 39.9315 100.582 32.3311C100.653 36.6004 100.139 39.8449 99.2999 42.262C87.8274 36.8082 76.9487 33.9248 73.1014 33.1106C71.2278 36.2353 69.0433 42.8203 68.8111 47.6852Z" fill="#100F0D"/>
<path d="M149.934 62.8422C149.934 66.769 146.747 69.9496 142.816 69.9496C138.884 69.9496 135.699 66.769 135.699 62.8422C135.699 58.9181 138.884 55.7361 142.816 55.7361C146.747 55.7361 149.934 58.9181 149.934 62.8422Z" fill="#100F0D"/>
<path d="M142.814 60.9551C142.814 62.1197 141.868 63.0644 140.702 63.0644C139.536 63.0644 138.59 62.1197 138.59 60.9551C138.59 59.7905 139.536 58.8458 140.702 58.8458C141.868 58.8458 142.814 59.7905 142.814 60.9551Z" fill="white"/>
<path d="M155.052 47.6852C147.437 48.8098 133.451 51.5453 124.507 55.1284C121.383 48.0543 120.758 39.9315 123.279 32.3311C123.208 36.6004 123.722 39.8449 124.562 42.262C136.035 36.8082 146.913 33.9248 150.76 33.1106C152.634 36.2353 154.818 42.8203 155.052 47.6852Z" fill="#100F0D"/>
<path d="M217.047 121.416C220.529 122.535 223.225 125.895 222.904 130.665C222.411 138.207 217.446 140.459 212.335 139.726C212.335 141.083 212.028 142.537 211.348 143.99C208.986 149.093 200.672 151.105 192.665 147.547C190.691 158.14 176.651 158.725 171.193 155.301C168.444 161.525 159.331 163.31 154.459 159.353C152.364 165.549 141.154 166.788 137.218 160.539C133.561 165.869 127.329 168.534 117.2 167.534C111.624 166.975 108.193 165.123 106.164 162.831C97.4636 171.105 82.7977 165.696 80.5024 158.54C78.1804 161.698 72.8425 163.697 66.3303 162.538C62.6872 161.885 59.0174 159.42 57.3626 155.835C52.0514 162.204 39.0803 158.965 38.1462 151.212C31.9142 153.49 20.451 152.877 16.7946 147.387C15.5135 145.469 14.7795 143.603 14.4726 141.844C6.41232 142.457 1.23457 138.873 0.940985 132.89C0.700779 128.04 4.51738 124.016 8.74767 123.23C10.4558 122.897 12.244 123.11 13.8454 124.003C14.0589 120.898 17.6086 115.794 24.2943 115.794C28.7381 115.794 33.6356 118.233 34.3029 124.456C40.0945 114.235 52.5051 118.751 54.1465 124.987C59.3777 122.989 66.9041 126.361 67.7315 131.837C70.654 128.386 75.725 127.412 79.5149 127.72C83.3048 128.04 86.7744 129.892 88.8295 132.29C93.0998 126.774 104.496 128.985 105.164 134.861C107.659 131.518 111.742 129.252 116.146 128.893C122.005 128.412 127.383 130.757 130.705 133.943C132.227 128.067 137.378 125.828 141.395 125.402C146.065 124.895 152.911 126.894 154.846 133.783C155.74 129.053 163.24 126.894 165.976 131.997C166.75 126.734 170.313 122.95 176.425 121.564C179.988 120.75 183.204 121.083 185.646 122.617C187.047 119.166 190.745 115.873 195.107 115.568C200.712 115.182 207.117 117.06 208.679 123.123C211.254 121.004 214.39 120.551 217.047 121.416Z" fill="#E88D3A"/>
<path d="M217.665 121.675C217.094 128.641 212.43 130.733 207.62 130.044C207.62 131.339 207.328 132.724 206.681 134.107C204.428 138.97 196.506 140.889 188.875 137.498C186.992 147.594 173.613 148.152 168.411 144.889C165.79 150.82 157.107 152.521 152.463 148.748C150.465 154.653 139.784 155.835 136.031 149.879C132.544 154.958 126.606 157.499 116.953 156.547C111.637 156.012 108.367 154.247 106.435 152.063C98.1427 159.949 84.1641 154.793 81.9782 147.975C79.7643 150.984 74.6773 152.889 68.472 151.783C64.9984 151.162 61.5007 148.813 59.9247 145.397C54.8617 151.466 42.5018 148.381 41.6103 140.99C35.6706 143.161 24.7452 142.577 21.2609 137.345C20.0399 135.516 19.3393 133.739 19.047 132.064C11.6367 132.626 6.79654 129.462 6.21204 124.117C3.11606 125.721 0.751365 129.042 0.940861 132.89C1.23445 138.873 6.4122 142.457 14.4724 141.844C14.7794 143.603 15.5133 145.469 16.7944 147.387C20.4509 152.877 31.914 153.49 38.146 151.212C39.0802 158.965 52.0513 162.204 57.3625 155.835C59.0172 159.42 62.687 161.885 66.3302 162.538C72.8424 163.697 78.1803 161.698 80.5023 158.54C82.7976 165.696 97.4635 171.105 106.164 162.831C108.193 165.123 111.624 166.975 117.2 167.534C127.329 168.534 133.561 165.869 137.217 160.539C141.154 166.788 152.364 165.549 154.459 159.353C159.331 163.31 168.444 161.525 171.193 155.301C176.651 158.725 190.691 158.14 192.665 147.547C200.672 151.105 208.986 149.093 211.348 143.99C212.028 142.537 212.335 141.083 212.335 139.726C217.446 140.459 222.41 138.207 222.904 130.665C223.206 126.188 220.837 122.978 217.665 121.675Z" fill="#D87639"/>
<path d="M30.7599 125.964L30.7839 125.981L30.84 126.021L30.7599 125.964Z" fill="#F1AC56"/>
<path d="M31.2845 126.368C31.1177 126.24 30.9496 126.11 30.7841 125.981C30.245 125.5 29.6031 125.182 28.9279 125.051C29.1774 124.42 29.3082 123.679 29.2268 123.007C29.0253 121.323 28.4114 120.217 27.0262 119.207C25.9426 118.418 24.4534 118.505 23.2163 118.699C22.1327 118.871 21.0972 119.66 20.3232 120.381C18.4989 122.078 17.4247 124.982 18.7805 127.275C19.8694 129.112 22.2515 129.823 24.2932 129.387C24.2385 129.977 24.3039 130.574 24.5428 131.15C24.8897 131.985 25.0165 132.208 25.5957 132.925C26.1401 133.599 27.145 133.869 27.9644 133.904C28.2299 133.915 28.8865 134.095 28.0498 133.875C29.5751 134.276 31.1177 133.623 31.9411 132.294C32.5016 131.387 32.4856 130.381 32.5216 129.364C32.5483 128.621 32.3521 127.808 31.9491 127.179C31.7809 126.858 31.5594 126.587 31.2845 126.368Z" fill="#F1AC56"/>
<path d="M56.1585 134.164L55.897 133.971C55.5447 133.547 55.1136 133.198 54.6159 132.959C54.1902 131.647 53.3174 130.508 52.0336 129.705C51.2169 129.195 50.1027 128.925 49.0858 129.019C49.1098 128.767 49.1285 128.514 49.1125 128.27C49.0111 126.835 48.5053 125.68 47.5512 124.605C45.9765 122.831 42.9112 122.931 41.3192 124.574C40.1475 125.781 40.01 127.407 40.6119 128.731C40.3356 129.899 40.7613 131.181 41.5647 132.064C42.2546 132.826 43.501 133.178 44.5152 133.111C43.9975 134.32 43.8934 135.734 44.243 136.95C44.9356 139.346 47.1254 140.325 49.3407 140.201C50.1494 140.336 50.9861 140.345 51.8615 140.324L51.9896 140.379H51.995C53.3922 140.952 54.9468 140.821 56.1585 139.611C57.5237 138.247 57.8013 135.48 56.1585 134.164Z" fill="#F1AC56"/>
<path d="M75.7355 132.79C74.4264 133.09 73.1093 133.71 72.043 134.588C71.7188 134.38 71.3665 134.205 70.9701 134.044C72.5475 134.686 71.596 134.268 71.2103 134.075C70.2108 133.575 69.5275 133.427 68.4253 133.311C67.5792 133.223 66.521 133.535 65.807 133.976C64.957 134.502 64.0015 135.468 63.852 136.488C63.6892 137.594 63.6879 137.767 63.8534 138.87C64.0469 140.173 65.3973 141.279 66.593 141.607C66.9707 141.711 67.3724 141.747 67.7754 141.73L67.9222 141.784C68.7909 142.011 69.5903 141.907 70.3829 141.656C70.6538 142.192 70.9875 142.694 71.4025 143.131C71.9056 144.32 72.8891 145.331 74.3557 145.816C76.9833 146.685 80.3234 146.216 82.5227 144.578C85.8402 142.112 87.0505 137.824 84.1067 134.528C82.1477 132.336 78.3925 132.181 75.7355 132.79Z" fill="#F1AC56"/>
<path d="M59.6592 128.302C58.1259 128.302 56.8448 129.58 56.8448 131.114C56.8448 132.646 58.1259 133.924 59.6592 133.924C61.1925 133.924 62.4736 132.646 62.4736 131.114C62.4736 129.58 61.1925 128.302 59.6592 128.302Z" fill="#F1AC56"/>
<path d="M132.61 142.332C131.218 142.332 130.055 143.491 130.055 144.882C130.055 146.273 131.218 147.433 132.61 147.433C134.001 147.433 135.164 146.273 135.164 144.882C135.164 143.491 134.001 142.332 132.61 142.332Z" fill="#F1AC56"/>
<path d="M34.4963 134.364L34.3976 134.437C33.3366 134.733 32.6547 136.145 33.6276 137.118C34.6044 138.093 36.0269 137.404 36.3179 136.342L36.3859 136.251C37.1946 135.158 35.5892 133.554 34.4963 134.364Z" fill="#F1AC56"/>
<path d="M100.48 138.26C99.4494 137.804 98.6688 137.55 97.5118 137.523C96.4682 137.5 95.4006 137.927 94.4999 138.393C92.0431 139.663 90.8007 143.046 92.338 145.453C92.8078 146.187 93.443 146.765 94.1863 147.137C94.7775 147.77 95.5394 148.24 96.3815 148.42C97.6079 148.68 98.6741 148.469 99.7924 147.918L99.9806 147.796C100.839 147.126 100.944 147.052 100.293 147.569C100.679 147.33 101.035 147.03 101.371 146.725C102.568 145.633 103.179 144.397 103.334 142.774C103.508 140.958 102.085 138.97 100.48 138.26Z" fill="#F1AC56"/>
<path d="M127.011 137.812C125.309 136.056 122.923 135.236 120.544 134.987C117.541 134.677 115.078 135.53 113.295 138.052C113.083 138.353 112.904 138.662 112.745 138.975C111.428 138.378 109.856 138.29 108.425 138.538C108.112 138.593 107.815 138.693 107.534 138.822C105.576 139.51 104.25 141.666 104.487 143.72C104.747 145.975 106.121 147.871 108.436 148.384C110.423 148.824 112.329 148.316 113.882 147.033L113.914 146.999C114.919 148.105 116.275 148.938 117.883 149.294C118.291 149.386 118.695 149.431 119.101 149.455C119.987 149.619 120.895 149.575 121.735 149.321C121.869 149.331 121.998 149.345 122.134 149.351C127.814 149.591 130.81 141.735 127.011 137.812Z" fill="#F1AC56"/>
<path d="M148.59 133.987C148.562 133.777 148.523 133.57 148.456 133.364C148.099 132.282 147.033 131.195 145.778 131.33C144.414 131.475 143.231 131.973 142.495 133.216C142.095 133.893 142.004 134.622 142.103 135.314C139.873 135.446 138.029 137.142 137.958 139.423C137.899 139.614 137.849 139.803 137.813 139.991C137.479 141.678 138.268 143.759 140.165 144.128C141.389 144.368 142.473 144.469 143.7 144.235C145.961 143.806 147.325 141.74 147.412 139.552C147.434 138.967 147.293 138.408 147.05 137.893C148.071 137.287 148.747 136.139 148.682 134.973L148.693 134.893C148.682 134.513 148.561 133.672 148.59 133.987Z" fill="#F1AC56"/>
<path d="M190.103 127.909C189.231 127.909 188.425 128.209 187.763 128.697L187.663 128.442C187.534 128.168 187.227 127.311 187.617 128.485C187.427 127.915 187.147 127.27 186.801 126.755C185.193 124.353 182.686 123.358 179.851 123.785C181.501 123.538 179.616 123.748 179.065 123.933C178.227 124.212 177.471 124.605 176.839 125.235C175.632 126.44 175.091 128.317 175.54 129.971L175.481 130.318C174.838 130.284 174.145 130.353 173.665 130.528C172.508 130.949 171.779 131.562 171.05 132.433C170.635 132.3 170.206 132.208 169.752 132.208C167.643 132.208 165.854 133.771 165.48 135.78C165.061 135.398 164.594 135.069 164.151 134.83C162.747 134.076 161.195 133.841 159.645 134.236C157.954 134.665 156.542 136.392 156.609 138.168L156.555 138.235C155.968 139.062 156.007 140.223 156.212 141.154C156.439 142.192 157.327 143.106 158.203 143.658C159.22 144.299 160.557 144.545 161.744 144.425C163.113 144.289 164.757 143.943 165.718 142.85C166.309 142.177 166.788 141.506 167.002 140.617C167.056 140.387 167.074 140.171 167.094 139.954C167.836 140.536 168.752 140.901 169.752 140.901C170.433 140.901 171.07 140.724 171.65 140.436C171.88 140.602 172.125 140.745 172.384 140.865C172.797 141.551 173.586 142.268 174.403 142.4C175.578 142.593 176.542 142.804 177.744 142.564C179.515 142.211 180.632 140.499 181.212 138.932C181.434 138.335 181.506 137.739 181.47 137.165C182.305 137.162 183.13 137.058 183.828 136.902C185.114 136.614 186.362 135.723 187.21 134.594C187.942 135.374 188.968 135.872 190.103 135.872C192.277 135.872 194.09 134.061 194.09 131.891C194.09 129.72 192.277 127.909 190.103 127.909Z" fill="#F1AC56"/>
<path d="M203.929 121.44C203.202 120.116 202.046 119.379 200.681 118.843C199.575 118.407 198.069 118.259 196.947 118.687C195.103 119.387 193.736 120.812 193.736 122.896C193.736 123.736 193.966 124.462 194.352 125.082C194.437 126.065 194.775 126.697 195.376 127.472C195.77 127.98 196.407 128.35 196.992 128.613C198.224 129.17 199.616 129.715 200.975 129.195C202.635 128.563 203.649 127.491 204.26 125.841C204.798 124.39 204.674 122.794 203.929 121.44Z" fill="#F1AC56"/>
<path d="M55.4933 140.833L55.5746 141.031C49.7417 143.456 43.9514 144.869 39.0258 145.283C41.6948 137.621 48.9276 128.96 51.263 126.962L52.2919 126.509C54.0387 130.399 55.1997 135.142 55.4933 140.833Z" fill="#FDEAB3"/>
<path d="M52.2916 126.509L51.2627 126.962C42.255 133.291 35.5826 135.503 27.9094 136.836C30.2447 130.626 35.4758 122.298 43.2558 116.742L43.9231 115.796C47.2339 118.273 50.1951 121.764 52.2916 126.509Z" fill="#FDEAB3"/>
<path d="M31.6458 111.012C35.6893 111.424 40.0397 112.917 43.923 115.796L43.2558 116.742C33.9144 122.072 26.3613 124.63 20.3428 127.295C22.2124 121.044 25.4138 115.462 31.6458 111.012Z" fill="#FDEAB3"/>
<path d="M73.7215 110.293C78.4455 116.182 78.6324 127.134 66.3819 135.29C62.9136 137.608 59.2291 139.513 55.574 141.032L55.4926 140.833C55.199 135.142 54.038 130.4 52.2912 126.509C50.1947 121.764 47.2335 118.273 43.9227 115.796C40.0393 112.918 35.6889 111.424 31.6455 111.012C34.7415 108.8 38.5714 106.88 43.3622 105.296C54.4917 101.632 68.3836 103.63 73.7215 110.293Z" fill="#CD5C29"/>
<path d="M74.5532 120.994C74.0434 124.277 72.0203 129.131 65.2786 133.62C62.5696 135.423 59.6458 137.022 56.6392 138.388C54.9778 121.557 45.5537 113.204 36.1964 110.545C38.4209 109.317 40.9951 108.189 43.9964 107.2C47.3979 106.078 51.2012 105.485 54.9965 105.485C62.591 105.485 69.1699 107.809 72.1658 111.545C74.2182 114.109 75.0896 117.552 74.5532 120.994ZM51.8991 129.109C52.976 132.107 53.7167 135.562 54.0343 139.507C50.0882 141.088 46.0555 142.243 42.2042 142.87C45.0186 137.033 49.7386 131.286 51.8991 129.109ZM31.2815 134.127C33.889 128.873 38.3262 122.714 44.4221 118.365L44.6863 118.085C46.8041 119.964 48.6977 122.337 50.2324 125.262L50.1136 125.32C42.77 130.48 37.1638 132.768 31.2815 134.127ZM24.7572 123.266C24.4316 123.399 24.11 123.53 23.7924 123.661C25.4592 119.893 28.1495 115.956 32.9923 112.541C35.7933 112.998 38.6131 113.986 41.2474 115.567C34.9647 119.067 29.552 121.299 24.7572 123.266ZM54.9965 101.488C50.7809 101.488 46.5426 102.15 42.742 103.403C29.4279 107.79 21.9308 114.98 18.4318 126.718C18.209 127.464 18.4412 128.275 19.0283 128.79C19.6155 129.303 20.4496 129.431 21.1622 129.115C22.7555 128.408 24.4596 127.708 26.2772 126.963C28.3323 126.12 30.4955 125.232 32.7934 124.22C29.6281 128.341 27.3581 132.626 26.0397 136.133C25.7861 136.805 25.9142 137.561 26.372 138.112C26.8297 138.664 27.5436 138.936 28.2562 138.805C33.0136 137.979 37.5308 136.801 42.5298 134.441C40.3826 137.602 38.3355 141.193 37.1412 144.62C36.9183 145.258 37.0357 145.966 37.4508 146.501C37.8324 146.992 38.4169 147.276 39.0321 147.276L39.1989 147.269C48.3534 146.507 58.9332 142.648 67.4992 136.946C75.4513 131.652 77.876 125.683 78.5099 121.607C79.2159 117.062 78.0428 112.483 75.2911 109.048C71.4986 104.314 63.9121 101.488 54.9965 101.488Z" fill="#100F0D"/>
<path d="M180.467 105.296C185.257 106.88 189.101 108.8 192.197 111.012C188.153 111.412 183.791 112.904 179.906 115.808C176.597 118.288 173.634 121.779 171.552 126.521C169.804 130.412 168.656 135.142 168.35 140.833L168.269 141.046C164.6 139.526 160.917 137.608 157.447 135.29C145.21 127.134 145.397 116.182 150.107 110.293C155.445 103.63 169.35 101.632 180.467 105.296Z" fill="#CD5C29"/>
<path d="M172.566 126.962C174.902 128.96 182.134 137.621 184.803 145.283C179.893 144.869 174.101 143.456 168.269 141.046L168.349 140.833C168.656 135.142 169.804 130.411 171.552 126.521L172.566 126.962Z" fill="#FDEAB3"/>
<path d="M180.573 116.742C188.355 122.298 193.584 130.626 195.92 136.836C188.247 135.503 181.574 133.291 172.566 126.962L171.552 126.521C173.634 121.779 176.597 118.288 179.906 115.808L180.573 116.742Z" fill="#FDEAB3"/>
<path d="M192.197 111.012C198.429 115.462 201.631 121.044 203.486 127.295C197.481 124.63 189.915 122.072 180.573 116.742L179.906 115.808C183.791 112.904 188.153 111.412 192.197 111.012Z" fill="#FDEAB3"/>
<path d="M199.078 123.266C194.284 121.299 188.87 119.067 182.587 115.567C185.223 113.986 188.041 112.998 190.843 112.54C195.686 115.956 198.375 119.893 200.042 123.661C199.724 123.529 199.404 123.399 199.078 123.266ZM192.553 134.127C186.672 132.767 181.066 130.48 173.722 125.32L173.601 125.266C175.134 122.338 177.03 119.965 179.148 118.085L179.412 118.365C185.509 122.714 189.947 128.873 192.553 134.127ZM181.63 142.87C177.78 142.243 173.746 141.087 169.8 139.507C170.119 135.562 170.858 132.106 171.937 129.108C174.096 131.286 178.816 137.033 181.63 142.87ZM149.281 120.994C148.746 117.552 149.616 114.109 151.669 111.546C154.664 107.809 161.243 105.485 168.839 105.485C172.633 105.485 176.438 106.078 179.839 107.2C182.84 108.189 185.413 109.317 187.638 110.544C178.282 113.204 168.857 121.557 167.195 138.388C164.189 137.022 161.266 135.423 158.556 133.62C151.815 129.131 149.791 124.277 149.281 120.994ZM205.312 126.41C201.773 114.855 194.292 107.753 181.092 103.402C177.292 102.15 173.055 101.488 168.839 101.488C159.924 101.488 152.336 104.314 148.545 109.048C145.791 112.483 144.618 117.062 145.324 121.607C145.958 125.683 148.383 131.652 156.335 136.946C164.901 142.648 175.481 146.507 184.635 147.269L184.802 147.275H184.817C185.912 147.309 186.832 146.385 186.831 145.277C186.831 144.929 186.743 144.601 186.585 144.316C185.379 140.981 183.389 137.508 181.305 134.441C186.303 136.801 190.821 137.979 195.579 138.805C196.292 138.935 197.005 138.664 197.464 138.112C197.921 137.56 198.048 136.805 197.796 136.133C196.476 132.626 194.206 128.341 191.041 124.22C193.34 125.232 195.502 126.12 197.557 126.963C199.375 127.708 201.08 128.408 202.672 129.115C202.932 129.231 203.21 129.287 203.485 129.287H203.512C204.618 129.287 205.513 128.392 205.513 127.288C205.513 126.973 205.441 126.675 205.312 126.41Z" fill="#100F0D"/>
</g>
<defs>
<clipPath id="clip0_1_167">
<rect width="222" height="164.743" fill="white" transform="translate(0.930222 2.99806)"/>
</clipPath>
</defs>
</svg>
