<svg width="222" height="169" viewBox="0 0 222 169" fill="none" xmlns="http://www.w3.org/2000/svg">
<g clip-path="url(#clip0_1_350)">
<path d="M167.341 92.5081C172.892 88.4321 182.007 91.4435 182.007 101.25C184.675 95.7473 196.339 97.0798 195.738 106.301C199.355 103.915 204.346 106.074 204.186 111.177C209.083 108.552 218.077 113.949 216.117 121.916C213.46 121.051 210.324 121.504 207.749 123.623C206.187 117.56 199.782 115.681 194.177 116.067C189.815 116.373 186.117 119.665 184.716 123.116C182.273 121.583 179.057 121.249 175.494 122.064C169.382 123.449 165.819 127.234 165.045 132.497C162.31 127.394 154.81 129.552 153.916 134.282C151.981 127.394 145.135 125.395 140.464 125.901C136.448 126.328 131.296 128.566 129.775 134.442C126.452 131.256 121.074 128.911 115.216 129.392C110.812 129.752 106.729 132.017 104.233 135.36C103.566 129.484 92.1696 127.274 87.9007 132.79C85.8442 130.392 82.3746 128.539 78.5847 128.22C74.7948 127.912 69.7238 128.886 66.8013 132.337C65.9739 126.861 58.4474 123.488 53.2163 125.487C51.5749 119.251 39.1643 114.735 33.3727 124.955C32.7054 118.732 27.8079 116.294 23.3641 116.294C16.6784 116.294 13.1286 121.397 12.9151 124.502C11.3138 123.609 9.52559 123.396 7.81746 123.729C5.65695 115.854 14.9569 109.817 20.2547 113.403C18.9203 105.408 28.702 102.077 33.2125 107.406C31.3843 100.251 38.8587 95.201 44.6623 97.333C46.6921 89.9364 59.1014 85.6059 65.4001 93.8552C66.2942 88.5253 71.4986 85.0343 77.9174 85.927C80.9067 86.3401 83.2554 87.8311 84.7633 89.6979C86.9786 83.6751 96.3479 82.4093 99.4292 87.7525C101.364 76.9994 119.74 72.068 127.12 83.4486C129.575 82.2094 132.644 81.8483 136.127 82.7557C141.692 84.2081 144.641 88.9118 145.028 92.5228C148.418 82.7557 164.285 84.5279 167.327 92.5081H167.341Z" fill="#D87639"/>
<path d="M33.3726 124.955C39.1642 114.735 51.5748 119.251 53.2162 125.487C58.4473 123.488 65.9738 126.861 66.8012 132.337C69.7237 128.886 74.7947 127.912 78.5846 128.22C82.3745 128.539 85.8441 130.392 87.9006 132.79C92.1696 127.274 103.566 129.484 104.233 135.36C106.729 132.017 110.812 129.752 115.216 129.392C121.074 128.911 126.452 131.256 129.775 134.442C131.296 128.566 136.447 126.328 140.464 125.901C145.135 125.395 151.981 127.394 153.916 134.282C154.81 129.552 162.31 127.394 165.045 132.497C165.819 127.234 169.382 123.449 175.494 122.064C179.057 121.249 182.273 121.583 184.715 123.116C186.051 119.826 189.483 116.711 193.58 116.159C190.203 112.896 183.884 113.367 182.006 117.24C182.006 107.433 172.892 104.422 167.341 108.498H167.327C164.285 100.518 148.418 98.7454 145.028 108.512C144.641 104.901 141.692 100.198 136.127 98.7454C132.644 97.8379 129.575 98.1991 127.119 99.4383C119.74 88.0576 101.364 92.9891 99.4291 103.742C96.3478 98.3989 86.9785 99.6648 84.7633 105.688C83.2553 103.821 80.9066 102.33 77.9174 101.917C71.4985 101.024 66.2941 104.515 65.4 109.845C59.1013 101.596 46.692 105.926 44.6623 113.323C38.8586 111.191 31.3842 116.241 33.2124 123.396L33.0443 123.228C33.1884 123.772 33.3059 124.34 33.3726 124.955Z" fill="#B74F2F"/>
<path d="M192.395 126.505C192.395 137.726 158.788 146.825 117.331 146.825C75.8754 146.825 42.2667 137.726 42.2667 126.505C42.2667 115.284 75.8754 106.185 117.331 106.185C158.788 106.185 192.395 115.284 192.395 126.505Z" fill="#612D26"/>
<path d="M216.117 121.916C219.599 123.035 222.294 126.394 221.974 131.164C221.48 138.706 216.516 140.958 211.405 140.225C211.405 141.583 211.098 143.037 210.417 144.489C208.057 149.593 199.742 151.605 191.735 148.047C189.761 158.64 175.721 159.225 170.263 155.801C167.514 162.025 158.401 163.81 153.529 159.853C151.434 166.049 140.224 167.288 136.287 161.038C132.631 166.368 126.399 169.033 116.27 168.034C110.693 167.474 107.263 165.622 105.234 163.33C96.5334 171.605 81.8674 166.195 79.5721 159.04C77.2502 162.198 71.9123 164.196 65.4001 163.037C61.7569 162.384 58.0871 159.919 56.4324 156.335C51.1211 162.704 38.15 159.465 37.2159 151.711C30.9839 153.99 19.5208 153.377 15.8643 147.887C14.5832 145.968 13.8493 144.103 13.5423 142.344C5.4821 142.957 0.304348 139.372 0.0107635 133.39C-0.229442 128.539 3.58716 124.515 7.81744 123.729C9.52557 123.396 11.3137 123.609 12.9151 124.502C13.1286 121.397 16.6784 116.294 23.3641 116.294C27.8079 116.294 32.7054 118.733 33.3726 124.955C39.1643 114.735 51.5749 119.251 53.2163 125.487C58.4474 123.488 65.9739 126.861 66.8013 132.337C69.7238 128.886 74.7947 127.912 78.5846 128.22C82.3746 128.539 85.8442 130.392 87.9006 132.79C92.1696 127.274 103.566 129.484 104.233 135.36C106.729 132.017 110.812 129.752 115.216 129.392C121.074 128.911 126.452 131.256 129.775 134.442C131.296 128.566 136.448 126.328 140.464 125.901C145.135 125.395 151.981 127.394 153.916 134.282C154.81 129.552 162.31 127.394 165.045 132.497C165.819 127.234 169.382 123.449 175.494 122.064C179.057 121.25 182.273 121.583 184.716 123.116C186.117 119.665 189.815 116.373 194.177 116.068C199.782 115.681 206.187 117.56 207.749 123.623C210.324 121.504 213.46 121.051 216.117 121.916Z" fill="#E88D3A"/>
<path d="M216.735 122.174C216.164 129.14 211.5 131.232 206.69 130.544C206.69 131.839 206.398 133.223 205.751 134.606C203.499 139.47 195.575 141.389 187.945 137.997C186.062 148.094 172.682 148.652 167.481 145.389C164.86 151.319 156.176 153.021 151.532 149.247C149.535 155.153 138.853 156.335 135.101 150.379C131.614 155.458 125.676 157.999 116.023 157.046C110.707 156.512 107.437 154.747 105.505 152.563C97.2125 160.448 83.2338 155.293 81.048 148.475C78.8354 151.483 73.7471 153.389 67.5417 152.283C64.0681 151.662 60.5705 149.313 58.9945 145.896C53.9315 151.966 41.5715 148.881 40.6801 141.49C34.7403 143.66 23.815 143.077 20.3307 137.844C19.1097 136.016 18.409 134.238 18.1181 132.564C10.7065 133.126 5.86632 129.961 5.28182 124.617C2.18583 126.221 -0.178857 129.541 0.010639 133.39C0.304224 139.372 5.48198 142.957 13.5422 142.344C13.8491 144.103 14.5831 145.968 15.8642 147.887C19.5206 153.377 30.9838 153.99 37.2158 151.711C38.1499 159.465 51.121 162.704 56.4322 156.335C58.087 159.919 61.7568 162.384 65.3999 163.037C71.9122 164.196 77.25 162.198 79.572 159.04C81.8673 166.195 96.5332 171.605 105.234 163.33C107.262 165.622 110.693 167.474 116.27 168.034C126.399 169.033 132.631 166.368 136.287 161.038C140.224 167.288 151.434 166.049 153.529 159.853C158.401 163.81 167.514 162.025 170.263 155.801C175.721 159.225 189.761 158.64 191.735 148.047C199.742 151.605 208.057 149.593 210.417 144.489C211.098 143.037 211.405 141.583 211.405 140.225C216.516 140.958 221.48 138.706 221.974 131.164C222.276 126.687 219.907 123.477 216.735 122.174Z" fill="#D87639"/>
<path d="M29.8292 126.464L29.8532 126.481L29.9092 126.521L29.8292 126.464Z" fill="#F1AC56"/>
<path d="M30.3539 126.867C30.1871 126.74 30.0189 126.61 29.8534 126.481C29.3143 126 28.6724 125.682 27.9972 125.551C28.2467 124.919 28.3775 124.178 28.2961 123.507C28.0946 121.823 27.4807 120.717 26.0955 119.707C25.0133 118.918 23.5227 119.004 22.2856 119.199C21.202 119.371 20.1665 120.16 19.3925 120.881C17.5682 122.578 16.494 125.482 17.8498 127.775C18.9387 129.612 21.3208 130.323 23.3625 129.887C23.3078 130.477 23.3732 131.074 23.6121 131.65C23.9591 132.485 24.0858 132.708 24.665 133.425C25.2095 134.099 26.2143 134.369 27.0337 134.404C27.2993 134.415 27.9558 134.594 27.1191 134.375C28.6444 134.776 30.187 134.123 31.0104 132.794C31.5722 131.887 31.5549 130.881 31.5909 129.864C31.6176 129.121 31.4214 128.308 31.0184 127.679C30.8516 127.358 30.6288 127.087 30.3539 126.867Z" fill="#F1AC56"/>
<path d="M55.2287 134.664L54.9672 134.47C54.6149 134.047 54.1838 133.697 53.6861 133.459C53.2604 132.146 52.3877 131.007 51.1039 130.205C50.2872 129.695 49.1729 129.424 48.156 129.519C48.18 129.267 48.2001 129.014 48.1827 128.77C48.0813 127.335 47.5755 126.18 46.6213 125.104C45.0467 123.331 41.9814 123.431 40.3894 125.074C39.2177 126.281 39.0816 127.907 39.6821 129.231C39.4058 130.398 39.8316 131.68 40.6349 132.564C41.3248 133.326 42.5712 133.677 43.5854 133.611C43.0676 134.819 42.9635 136.233 43.3132 137.45C44.0058 139.846 46.1957 140.825 48.4109 140.701C49.2196 140.836 50.0563 140.845 50.9317 140.824L51.0598 140.878H51.0679C52.4624 141.451 54.017 141.321 55.2287 140.111C56.5952 138.746 56.8715 135.98 55.2287 134.664Z" fill="#F1AC56"/>
<path d="M74.8053 133.29C73.4976 133.589 72.1791 134.209 71.1129 135.087C70.7886 134.879 70.4363 134.705 70.0399 134.544C71.6173 135.186 70.6658 134.767 70.2801 134.574C69.2806 134.075 68.5973 133.927 67.495 133.811C66.649 133.723 65.5908 134.035 64.8769 134.476C64.0268 135.002 63.0713 135.968 62.9218 136.987C62.759 138.093 62.7577 138.267 62.9232 139.37C63.1167 140.673 64.4671 141.779 65.6628 142.107C66.0405 142.211 66.4422 142.247 66.8452 142.229L66.9933 142.284C67.8607 142.51 68.6614 142.406 69.4528 142.156C69.7237 142.692 70.0572 143.194 70.4723 143.631C70.9754 144.82 71.9589 145.831 73.4255 146.316C76.0531 147.185 79.3932 146.716 81.5925 145.078C84.91 142.612 86.1217 138.324 83.1765 135.027C81.2175 132.835 77.4623 132.681 74.8053 133.29Z" fill="#F1AC56"/>
<path d="M58.7289 128.802C57.1956 128.802 55.9146 130.08 55.9146 131.614C55.9146 133.146 57.1956 134.424 58.7289 134.424C60.2636 134.424 61.5447 133.146 61.5447 131.614C61.5447 130.08 60.2636 128.802 58.7289 128.802Z" fill="#F1AC56"/>
<path d="M131.679 142.832C130.288 142.832 129.125 143.991 129.125 145.382C129.125 146.773 130.288 147.932 131.679 147.932C133.071 147.932 134.234 146.773 134.234 145.382C134.234 143.991 133.071 142.832 131.679 142.832Z" fill="#F1AC56"/>
<path d="M33.5657 134.863L33.467 134.937C32.4075 135.233 31.7242 136.645 32.697 137.618C33.6739 138.593 35.0964 137.904 35.3874 136.842L35.4554 136.75C36.2641 135.658 34.6587 134.053 33.5657 134.863Z" fill="#F1AC56"/>
<path d="M99.5489 138.76C98.52 138.304 97.738 138.049 96.581 138.023C95.5374 138 94.4699 138.426 93.5691 138.893C91.1123 140.163 89.87 143.546 91.4073 145.952C91.877 146.686 92.5122 147.265 93.2555 147.637C93.8467 148.269 94.6087 148.74 95.4507 148.92C96.6771 149.18 97.7434 148.969 98.8617 148.417L99.0498 148.296C99.9092 147.626 100.013 147.551 99.3621 148.068C99.7478 147.83 100.104 147.53 100.44 147.225C101.637 146.132 102.249 144.897 102.403 143.274C102.577 141.458 101.154 139.47 99.5489 138.76Z" fill="#F1AC56"/>
<path d="M126.08 138.312C124.378 136.555 121.992 135.736 119.613 135.487C116.61 135.176 114.147 136.029 112.365 138.551C112.152 138.853 111.974 139.162 111.814 139.475C110.497 138.878 108.925 138.79 107.495 139.038C107.181 139.092 106.885 139.192 106.603 139.322C104.645 140.009 103.319 142.165 103.557 144.22C103.817 146.474 105.191 148.37 107.505 148.883C109.492 149.323 111.398 148.815 112.951 147.532L112.983 147.499C113.988 148.605 115.344 149.438 116.952 149.794C117.36 149.886 117.765 149.931 118.17 149.955C119.056 150.119 119.964 150.075 120.805 149.82C120.938 149.831 121.068 149.844 121.204 149.851C126.883 150.091 129.88 142.234 126.08 138.312Z" fill="#F1AC56"/>
<path d="M147.66 134.487C147.632 134.277 147.593 134.069 147.526 133.864C147.169 132.782 146.102 131.695 144.848 131.83C143.484 131.975 142.3 132.473 141.565 133.716C141.166 134.393 141.074 135.122 141.173 135.814C138.944 135.946 137.099 137.642 137.028 139.923C136.969 140.114 136.918 140.303 136.882 140.491C136.549 142.177 137.338 144.259 139.235 144.628C140.459 144.868 141.542 144.969 142.77 144.735C145.031 144.305 146.395 142.24 146.481 140.052C146.505 139.467 146.363 138.908 146.12 138.393C147.141 137.787 147.817 136.638 147.752 135.473L147.762 135.393C147.752 135.013 147.63 134.172 147.66 134.487Z" fill="#F1AC56"/>
<path d="M189.173 128.409C188.301 128.409 187.495 128.709 186.833 129.196L186.733 128.942C186.604 128.667 186.297 127.811 186.686 128.985C186.497 128.414 186.217 127.769 185.872 127.255C184.263 124.853 181.756 123.857 178.922 124.285C180.57 124.037 178.686 124.248 178.135 124.433C177.297 124.711 176.54 125.104 175.909 125.735C174.701 126.939 174.161 128.817 174.609 130.47L174.551 130.818C173.907 130.783 173.215 130.853 172.734 131.027C171.577 131.448 170.849 132.061 170.12 132.933C169.705 132.799 169.275 132.708 168.822 132.708C166.713 132.708 164.924 134.27 164.55 136.28C164.132 135.897 163.664 135.568 163.221 135.33C161.817 134.576 160.265 134.341 158.714 134.735C157.024 135.165 155.612 136.891 155.68 138.668L155.625 138.734C155.038 139.562 155.077 140.722 155.282 141.654C155.509 142.692 156.396 143.606 157.273 144.157C158.29 144.798 159.629 145.045 160.814 144.925C162.183 144.789 163.827 144.443 164.788 143.35C165.379 142.677 165.858 142.005 166.071 141.117C166.126 140.886 166.143 140.67 166.164 140.453C166.905 141.035 167.822 141.401 168.822 141.401C169.502 141.401 170.14 141.223 170.719 140.936C170.95 141.102 171.194 141.245 171.453 141.365C171.867 142.051 172.656 142.768 173.474 142.9C174.648 143.093 175.612 143.303 176.814 143.063C178.585 142.71 179.702 140.998 180.282 139.431C180.504 138.834 180.576 138.239 180.54 137.664C181.375 137.662 182.201 137.558 182.898 137.402C184.184 137.114 185.432 136.223 186.279 135.094C187.012 135.873 188.04 136.372 189.173 136.372C191.346 136.372 193.16 134.561 193.16 132.39C193.16 130.22 191.346 128.409 189.173 128.409Z" fill="#F1AC56"/>
<path d="M216.117 121.916C219.599 123.035 222.294 126.394 221.974 131.164C221.48 138.706 216.516 140.958 211.405 140.225C211.405 141.583 211.098 143.037 210.417 144.489C208.057 149.593 199.742 151.605 191.735 148.047C189.761 158.64 175.721 159.225 170.263 155.801C167.514 162.025 158.401 163.81 153.529 159.853C151.434 166.049 140.224 167.288 136.287 161.038C132.631 166.368 126.399 169.033 116.27 168.034C110.693 167.474 107.263 165.622 105.234 163.33C96.5334 171.605 81.8674 166.195 79.5721 159.04C77.2502 162.198 71.9123 164.196 65.4001 163.037C61.7569 162.384 58.0871 159.919 56.4324 156.335C51.1211 162.704 38.15 159.465 37.2159 151.711C30.9839 153.99 19.5208 153.377 15.8643 147.887C14.5832 145.968 13.8493 144.103 13.5423 142.344C5.4821 142.957 0.304348 139.372 0.0107635 133.39C-0.229442 128.539 3.58716 124.515 7.81744 123.729C9.52557 123.396 11.3137 123.609 12.9151 124.502C13.1286 121.397 16.6784 116.294 23.3641 116.294C27.8079 116.294 32.7054 118.733 33.3726 124.955C39.1643 114.735 51.5749 119.251 53.2163 125.487C58.4474 123.488 65.9739 126.861 66.8013 132.337C69.7238 128.886 74.7947 127.912 78.5846 128.22C82.3746 128.539 85.8442 130.392 87.9006 132.79C92.1696 127.274 103.566 129.484 104.233 135.36C106.729 132.017 110.812 129.752 115.216 129.392C121.074 128.911 126.452 131.256 129.775 134.442C131.296 128.566 136.448 126.328 140.464 125.901C145.135 125.395 151.981 127.394 153.916 134.282C154.81 129.552 162.31 127.394 165.045 132.497C165.819 127.234 169.382 123.449 175.494 122.064C179.057 121.25 182.273 121.583 184.716 123.116C186.117 119.665 189.815 116.373 194.177 116.068C199.782 115.681 206.187 117.56 207.749 123.623C210.324 121.504 213.46 121.051 216.117 121.916Z" fill="#E88D3A"/>
<path d="M216.735 122.174C216.164 129.14 211.5 131.232 206.69 130.544C206.69 131.839 206.398 133.223 205.751 134.606C203.499 139.47 195.575 141.389 187.945 137.997C186.062 148.094 172.682 148.652 167.481 145.389C164.86 151.319 156.176 153.021 151.532 149.247C149.535 155.153 138.853 156.335 135.101 150.379C131.614 155.458 125.676 157.999 116.023 157.046C110.707 156.512 107.437 154.747 105.505 152.563C97.2125 160.448 83.2338 155.293 81.048 148.475C78.8354 151.483 73.7471 153.389 67.5417 152.283C64.0681 151.662 60.5705 149.313 58.9945 145.896C53.9315 151.966 41.5715 148.881 40.6801 141.49C34.7403 143.66 23.815 143.077 20.3307 137.844C19.1097 136.016 18.409 134.238 18.1181 132.564C10.7065 133.126 5.86632 129.961 5.28182 124.617C2.18583 126.221 -0.178857 129.541 0.010639 133.39C0.304224 139.372 5.48198 142.957 13.5422 142.344C13.8491 144.103 14.5831 145.968 15.8642 147.887C19.5206 153.377 30.9838 153.99 37.2158 151.711C38.1499 159.465 51.121 162.704 56.4322 156.335C58.087 159.919 61.7568 162.384 65.3999 163.037C71.9122 164.196 77.25 162.198 79.572 159.04C81.8673 166.195 96.5332 171.605 105.234 163.33C107.262 165.622 110.693 167.474 116.27 168.034C126.399 169.033 132.631 166.368 136.287 161.038C140.224 167.288 151.434 166.049 153.529 159.853C158.401 163.81 167.514 162.025 170.263 155.801C175.721 159.225 189.761 158.64 191.735 148.047C199.742 151.605 208.057 149.593 210.417 144.489C211.098 143.037 211.405 141.583 211.405 140.225C216.516 140.958 221.48 138.706 221.974 131.164C222.276 126.687 219.907 123.477 216.735 122.174Z" fill="#D87639"/>
<path d="M29.8292 126.464L29.8532 126.481L29.9092 126.521L29.8292 126.464Z" fill="#F1AC56"/>
<path d="M30.3539 126.867C30.1871 126.74 30.0189 126.61 29.8534 126.481C29.3143 126 28.6724 125.682 27.9972 125.551C28.2467 124.919 28.3775 124.178 28.2961 123.507C28.0946 121.823 27.4807 120.717 26.0955 119.707C25.0133 118.918 23.5227 119.004 22.2856 119.199C21.202 119.371 20.1665 120.16 19.3925 120.881C17.5682 122.578 16.494 125.482 17.8498 127.775C18.9387 129.612 21.3208 130.323 23.3625 129.887C23.3078 130.477 23.3732 131.074 23.6121 131.65C23.9591 132.485 24.0858 132.708 24.665 133.425C25.2095 134.099 26.2143 134.369 27.0337 134.404C27.2993 134.415 27.9558 134.594 27.1191 134.375C28.6444 134.776 30.187 134.123 31.0104 132.794C31.5722 131.887 31.5549 130.881 31.5909 129.864C31.6176 129.121 31.4214 128.308 31.0184 127.679C30.8516 127.358 30.6288 127.087 30.3539 126.867Z" fill="#F1AC56"/>
<path d="M55.2287 134.664L54.9672 134.47C54.6149 134.047 54.1838 133.697 53.6861 133.459C53.2604 132.146 52.3877 131.007 51.1039 130.205C50.2872 129.695 49.1729 129.424 48.156 129.519C48.18 129.267 48.2001 129.014 48.1827 128.77C48.0813 127.335 47.5755 126.18 46.6213 125.104C45.0467 123.331 41.9814 123.431 40.3894 125.074C39.2177 126.281 39.0816 127.907 39.6821 129.231C39.4058 130.398 39.8316 131.68 40.6349 132.564C41.3248 133.326 42.5712 133.677 43.5854 133.611C43.0676 134.819 42.9635 136.233 43.3132 137.45C44.0058 139.846 46.1957 140.825 48.4109 140.701C49.2196 140.836 50.0563 140.845 50.9317 140.824L51.0598 140.878H51.0679C52.4624 141.451 54.017 141.321 55.2287 140.111C56.5952 138.746 56.8715 135.98 55.2287 134.664Z" fill="#F1AC56"/>
<path d="M74.8053 133.29C73.4976 133.589 72.1791 134.209 71.1129 135.087C70.7886 134.879 70.4363 134.705 70.0399 134.544C71.6173 135.186 70.6658 134.767 70.2801 134.574C69.2806 134.075 68.5973 133.927 67.495 133.811C66.649 133.723 65.5908 134.035 64.8769 134.476C64.0268 135.002 63.0713 135.968 62.9218 136.987C62.759 138.093 62.7577 138.267 62.9232 139.37C63.1167 140.673 64.4671 141.779 65.6628 142.107C66.0405 142.211 66.4422 142.247 66.8452 142.229L66.9933 142.284C67.8607 142.51 68.6614 142.406 69.4528 142.156C69.7237 142.692 70.0572 143.194 70.4723 143.631C70.9754 144.82 71.9589 145.831 73.4255 146.316C76.0531 147.185 79.3932 146.716 81.5925 145.078C84.91 142.612 86.1217 138.324 83.1765 135.027C81.2175 132.835 77.4623 132.681 74.8053 133.29Z" fill="#F1AC56"/>
<path d="M58.7289 128.802C57.1956 128.802 55.9146 130.08 55.9146 131.614C55.9146 133.146 57.1956 134.424 58.7289 134.424C60.2636 134.424 61.5447 133.146 61.5447 131.614C61.5447 130.08 60.2636 128.802 58.7289 128.802Z" fill="#F1AC56"/>
<path d="M131.679 142.832C130.288 142.832 129.125 143.991 129.125 145.382C129.125 146.773 130.288 147.932 131.679 147.932C133.071 147.932 134.234 146.773 134.234 145.382C134.234 143.991 133.071 142.832 131.679 142.832Z" fill="#F1AC56"/>
<path d="M33.5657 134.863L33.467 134.937C32.4075 135.233 31.7242 136.645 32.697 137.618C33.6739 138.593 35.0964 137.904 35.3874 136.842L35.4554 136.75C36.2641 135.658 34.6587 134.053 33.5657 134.863Z" fill="#F1AC56"/>
<path d="M99.5489 138.76C98.52 138.304 97.738 138.049 96.581 138.023C95.5374 138 94.4699 138.426 93.5691 138.893C91.1123 140.163 89.87 143.546 91.4073 145.952C91.877 146.686 92.5122 147.265 93.2555 147.637C93.8467 148.269 94.6087 148.74 95.4507 148.92C96.6771 149.18 97.7434 148.969 98.8617 148.417L99.0498 148.296C99.9092 147.626 100.013 147.551 99.3621 148.068C99.7478 147.83 100.104 147.53 100.44 147.225C101.637 146.132 102.249 144.897 102.403 143.274C102.577 141.458 101.154 139.47 99.5489 138.76Z" fill="#F1AC56"/>
<path d="M126.08 138.312C124.378 136.555 121.992 135.736 119.613 135.487C116.61 135.176 114.147 136.029 112.365 138.551C112.152 138.853 111.974 139.162 111.814 139.475C110.497 138.878 108.925 138.79 107.495 139.038C107.181 139.092 106.885 139.192 106.603 139.322C104.645 140.009 103.319 142.165 103.557 144.22C103.817 146.474 105.191 148.37 107.505 148.883C109.492 149.323 111.398 148.815 112.951 147.532L112.983 147.499C113.988 148.605 115.344 149.438 116.952 149.794C117.36 149.886 117.765 149.931 118.17 149.955C119.056 150.119 119.964 150.075 120.805 149.82C120.938 149.831 121.068 149.844 121.204 149.851C126.883 150.091 129.88 142.234 126.08 138.312Z" fill="#F1AC56"/>
<path d="M147.66 134.487C147.632 134.277 147.593 134.069 147.526 133.864C147.169 132.782 146.102 131.695 144.848 131.83C143.484 131.975 142.3 132.473 141.565 133.716C141.166 134.393 141.074 135.122 141.173 135.814C138.944 135.946 137.099 137.642 137.028 139.923C136.969 140.114 136.918 140.303 136.882 140.491C136.549 142.177 137.338 144.259 139.235 144.628C140.459 144.868 141.542 144.969 142.77 144.735C145.031 144.305 146.395 142.24 146.481 140.052C146.505 139.467 146.363 138.908 146.12 138.393C147.141 137.787 147.817 136.638 147.752 135.473L147.762 135.393C147.752 135.013 147.63 134.172 147.66 134.487Z" fill="#F1AC56"/>
<path d="M189.173 128.409C188.301 128.409 187.495 128.709 186.833 129.196L186.733 128.942C186.604 128.667 186.297 127.811 186.686 128.985C186.497 128.414 186.217 127.769 185.872 127.255C184.263 124.853 181.756 123.857 178.922 124.285C180.57 124.037 178.686 124.248 178.135 124.433C177.297 124.711 176.54 125.104 175.909 125.735C174.701 126.939 174.161 128.817 174.609 130.47L174.551 130.818C173.907 130.783 173.215 130.853 172.734 131.027C171.577 131.448 170.849 132.061 170.12 132.933C169.705 132.799 169.275 132.708 168.822 132.708C166.713 132.708 164.924 134.27 164.55 136.28C164.132 135.897 163.664 135.568 163.221 135.33C161.817 134.576 160.265 134.341 158.714 134.735C157.024 135.165 155.612 136.891 155.68 138.668L155.625 138.734C155.038 139.562 155.077 140.722 155.282 141.654C155.509 142.692 156.396 143.606 157.273 144.157C158.29 144.798 159.629 145.045 160.814 144.925C162.183 144.789 163.827 144.443 164.788 143.35C165.379 142.677 165.858 142.005 166.071 141.117C166.126 140.886 166.143 140.67 166.164 140.453C166.905 141.035 167.822 141.401 168.822 141.401C169.502 141.401 170.14 141.223 170.719 140.936C170.95 141.102 171.194 141.245 171.453 141.365C171.867 142.051 172.656 142.768 173.474 142.9C174.648 143.093 175.612 143.303 176.814 143.063C178.585 142.71 179.702 140.998 180.282 139.431C180.504 138.834 180.576 138.239 180.54 137.664C181.375 137.662 182.201 137.558 182.898 137.402C184.184 137.114 185.432 136.223 186.279 135.094C187.012 135.873 188.04 136.372 189.173 136.372C191.346 136.372 193.16 134.561 193.16 132.39C193.16 130.22 191.346 128.409 189.173 128.409Z" fill="#F1AC56"/>
</g>
<defs>
<clipPath id="clip0_1_350">
<rect width="222" height="91.2907" fill="white" transform="translate(0 76.9502)"/>
</clipPath>
</defs>
</svg>
